%TF.GenerationSoftware,KiCad,Pcbnew,(5.1.10)-1*%
%TF.CreationDate,2022-07-16T16:26:33-07:00*%
%TF.ProjectId,Garden_Board,47617264-656e-45f4-926f-6172642e6b69,rev?*%
%TF.SameCoordinates,Original*%
%TF.FileFunction,Legend,Bot*%
%TF.FilePolarity,Positive*%
%FSLAX46Y46*%
G04 Gerber Fmt 4.6, Leading zero omitted, Abs format (unit mm)*
G04 Created by KiCad (PCBNEW (5.1.10)-1) date 2022-07-16 16:26:33*
%MOMM*%
%LPD*%
G01*
G04 APERTURE LIST*
%ADD10C,0.120000*%
%ADD11C,0.150000*%
G04 APERTURE END LIST*
D10*
%TO.C,K1*%
X33390000Y-57350000D02*
X33390000Y-86550000D01*
X33390000Y-86550000D02*
X46090000Y-86550000D01*
X46090000Y-86550000D02*
X46090000Y-57350000D01*
X46090000Y-57350000D02*
X33390000Y-57350000D01*
%TO.C,U1*%
X137359000Y-54980000D02*
X137359000Y-56490000D01*
X141060000Y-54980000D02*
X141060000Y-56490000D01*
X144330000Y-56490000D02*
X134090000Y-56490000D01*
X134090000Y-54980000D02*
X134090000Y-59621000D01*
X144330000Y-54980000D02*
X144330000Y-59621000D01*
X144330000Y-59621000D02*
X134090000Y-59621000D01*
X144330000Y-54980000D02*
X134090000Y-54980000D01*
%TO.C,R10*%
X53000000Y-105120000D02*
X53000000Y-104350000D01*
X53000000Y-97040000D02*
X53000000Y-97810000D01*
X51630000Y-104350000D02*
X51630000Y-97810000D01*
X54370000Y-104350000D02*
X51630000Y-104350000D01*
X54370000Y-97810000D02*
X54370000Y-104350000D01*
X51630000Y-97810000D02*
X54370000Y-97810000D01*
%TO.C,R9*%
X53000000Y-148120000D02*
X53000000Y-147350000D01*
X53000000Y-140040000D02*
X53000000Y-140810000D01*
X51630000Y-147350000D02*
X51630000Y-140810000D01*
X54370000Y-147350000D02*
X51630000Y-147350000D01*
X54370000Y-140810000D02*
X54370000Y-147350000D01*
X51630000Y-140810000D02*
X54370000Y-140810000D01*
%TO.C,R8*%
X153000000Y-105120000D02*
X153000000Y-104350000D01*
X153000000Y-97040000D02*
X153000000Y-97810000D01*
X151630000Y-104350000D02*
X151630000Y-97810000D01*
X154370000Y-104350000D02*
X151630000Y-104350000D01*
X154370000Y-97810000D02*
X154370000Y-104350000D01*
X151630000Y-97810000D02*
X154370000Y-97810000D01*
%TO.C,R7*%
X153000000Y-148120000D02*
X153000000Y-147350000D01*
X153000000Y-140040000D02*
X153000000Y-140810000D01*
X151630000Y-147350000D02*
X151630000Y-140810000D01*
X154370000Y-147350000D02*
X151630000Y-147350000D01*
X154370000Y-140810000D02*
X154370000Y-147350000D01*
X151630000Y-140810000D02*
X154370000Y-140810000D01*
%TO.C,R6*%
X128000000Y-105120000D02*
X128000000Y-104350000D01*
X128000000Y-97040000D02*
X128000000Y-97810000D01*
X126630000Y-104350000D02*
X126630000Y-97810000D01*
X129370000Y-104350000D02*
X126630000Y-104350000D01*
X129370000Y-97810000D02*
X129370000Y-104350000D01*
X126630000Y-97810000D02*
X129370000Y-97810000D01*
%TO.C,R5*%
X128000000Y-148120000D02*
X128000000Y-147350000D01*
X128000000Y-140040000D02*
X128000000Y-140810000D01*
X126630000Y-147350000D02*
X126630000Y-140810000D01*
X129370000Y-147350000D02*
X126630000Y-147350000D01*
X129370000Y-140810000D02*
X129370000Y-147350000D01*
X126630000Y-140810000D02*
X129370000Y-140810000D01*
%TO.C,R4*%
X103000000Y-105120000D02*
X103000000Y-104350000D01*
X103000000Y-97040000D02*
X103000000Y-97810000D01*
X101630000Y-104350000D02*
X101630000Y-97810000D01*
X104370000Y-104350000D02*
X101630000Y-104350000D01*
X104370000Y-97810000D02*
X104370000Y-104350000D01*
X101630000Y-97810000D02*
X104370000Y-97810000D01*
%TO.C,R3*%
X103000000Y-148120000D02*
X103000000Y-147350000D01*
X103000000Y-140040000D02*
X103000000Y-140810000D01*
X101630000Y-147350000D02*
X101630000Y-140810000D01*
X104370000Y-147350000D02*
X101630000Y-147350000D01*
X104370000Y-140810000D02*
X104370000Y-147350000D01*
X101630000Y-140810000D02*
X104370000Y-140810000D01*
%TO.C,R2*%
X78000000Y-105120000D02*
X78000000Y-104350000D01*
X78000000Y-97040000D02*
X78000000Y-97810000D01*
X76630000Y-104350000D02*
X76630000Y-97810000D01*
X79370000Y-104350000D02*
X76630000Y-104350000D01*
X79370000Y-97810000D02*
X79370000Y-104350000D01*
X76630000Y-97810000D02*
X79370000Y-97810000D01*
%TO.C,R1*%
X78000000Y-148120000D02*
X78000000Y-147350000D01*
X78000000Y-140040000D02*
X78000000Y-140810000D01*
X76630000Y-147350000D02*
X76630000Y-140810000D01*
X79370000Y-147350000D02*
X76630000Y-147350000D01*
X79370000Y-140810000D02*
X79370000Y-147350000D01*
X76630000Y-140810000D02*
X79370000Y-140810000D01*
%TO.C,Q5*%
X54700000Y-110250000D02*
X54700000Y-114100000D01*
X54690122Y-114138611D02*
G75*
G02*
X54700000Y-110250000I-1690122J1948611D01*
G01*
%TO.C,Q4*%
X154700000Y-110250000D02*
X154700000Y-114100000D01*
X154690122Y-114138611D02*
G75*
G02*
X154700000Y-110250000I-1690122J1948611D01*
G01*
%TO.C,Q3*%
X129700000Y-110250000D02*
X129700000Y-114100000D01*
X129690122Y-114138611D02*
G75*
G02*
X129700000Y-110250000I-1690122J1948611D01*
G01*
%TO.C,Q2*%
X104700000Y-110250000D02*
X104700000Y-114100000D01*
X104690122Y-114138611D02*
G75*
G02*
X104700000Y-110250000I-1690122J1948611D01*
G01*
%TO.C,Q1*%
X79700000Y-110250000D02*
X79700000Y-114100000D01*
X79690122Y-114138611D02*
G75*
G02*
X79700000Y-110250000I-1690122J1948611D01*
G01*
%TO.C,J1*%
X159000000Y-62500000D02*
X159000000Y-53500000D01*
X173000000Y-62500000D02*
X159000000Y-62500000D01*
X173000000Y-53500000D02*
X173000000Y-62500000D01*
X159000000Y-53500000D02*
X173000000Y-53500000D01*
%TO.C,D19*%
X59920000Y-103700000D02*
X56080000Y-103700000D01*
X59920000Y-103460000D02*
X56080000Y-103460000D01*
X59920000Y-103580000D02*
X56080000Y-103580000D01*
X56080000Y-97000000D02*
X56560000Y-97000000D01*
X56080000Y-104840000D02*
X56080000Y-97000000D01*
X56560000Y-104840000D02*
X56080000Y-104840000D01*
X59920000Y-97000000D02*
X59440000Y-97000000D01*
X59920000Y-104840000D02*
X59920000Y-97000000D01*
X59440000Y-104840000D02*
X59920000Y-104840000D01*
%TO.C,D18*%
X44300000Y-157920000D02*
X44300000Y-154080000D01*
X44540000Y-157920000D02*
X44540000Y-154080000D01*
X44420000Y-157920000D02*
X44420000Y-154080000D01*
X51000000Y-154080000D02*
X51000000Y-154560000D01*
X43160000Y-154080000D02*
X51000000Y-154080000D01*
X43160000Y-154560000D02*
X43160000Y-154080000D01*
X51000000Y-157920000D02*
X51000000Y-157440000D01*
X43160000Y-157920000D02*
X51000000Y-157920000D01*
X43160000Y-157440000D02*
X43160000Y-157920000D01*
%TO.C,D15*%
X159920000Y-103700000D02*
X156080000Y-103700000D01*
X159920000Y-103460000D02*
X156080000Y-103460000D01*
X159920000Y-103580000D02*
X156080000Y-103580000D01*
X156080000Y-97000000D02*
X156560000Y-97000000D01*
X156080000Y-104840000D02*
X156080000Y-97000000D01*
X156560000Y-104840000D02*
X156080000Y-104840000D01*
X159920000Y-97000000D02*
X159440000Y-97000000D01*
X159920000Y-104840000D02*
X159920000Y-97000000D01*
X159440000Y-104840000D02*
X159920000Y-104840000D01*
%TO.C,D14*%
X144300000Y-157920000D02*
X144300000Y-154080000D01*
X144540000Y-157920000D02*
X144540000Y-154080000D01*
X144420000Y-157920000D02*
X144420000Y-154080000D01*
X151000000Y-154080000D02*
X151000000Y-154560000D01*
X143160000Y-154080000D02*
X151000000Y-154080000D01*
X143160000Y-154560000D02*
X143160000Y-154080000D01*
X151000000Y-157920000D02*
X151000000Y-157440000D01*
X143160000Y-157920000D02*
X151000000Y-157920000D01*
X143160000Y-157440000D02*
X143160000Y-157920000D01*
%TO.C,D11*%
X134920000Y-103700000D02*
X131080000Y-103700000D01*
X134920000Y-103460000D02*
X131080000Y-103460000D01*
X134920000Y-103580000D02*
X131080000Y-103580000D01*
X131080000Y-97000000D02*
X131560000Y-97000000D01*
X131080000Y-104840000D02*
X131080000Y-97000000D01*
X131560000Y-104840000D02*
X131080000Y-104840000D01*
X134920000Y-97000000D02*
X134440000Y-97000000D01*
X134920000Y-104840000D02*
X134920000Y-97000000D01*
X134440000Y-104840000D02*
X134920000Y-104840000D01*
%TO.C,D10*%
X119300000Y-157920000D02*
X119300000Y-154080000D01*
X119540000Y-157920000D02*
X119540000Y-154080000D01*
X119420000Y-157920000D02*
X119420000Y-154080000D01*
X126000000Y-154080000D02*
X126000000Y-154560000D01*
X118160000Y-154080000D02*
X126000000Y-154080000D01*
X118160000Y-154560000D02*
X118160000Y-154080000D01*
X126000000Y-157920000D02*
X126000000Y-157440000D01*
X118160000Y-157920000D02*
X126000000Y-157920000D01*
X118160000Y-157440000D02*
X118160000Y-157920000D01*
%TO.C,D7*%
X109920000Y-103700000D02*
X106080000Y-103700000D01*
X109920000Y-103460000D02*
X106080000Y-103460000D01*
X109920000Y-103580000D02*
X106080000Y-103580000D01*
X106080000Y-97000000D02*
X106560000Y-97000000D01*
X106080000Y-104840000D02*
X106080000Y-97000000D01*
X106560000Y-104840000D02*
X106080000Y-104840000D01*
X109920000Y-97000000D02*
X109440000Y-97000000D01*
X109920000Y-104840000D02*
X109920000Y-97000000D01*
X109440000Y-104840000D02*
X109920000Y-104840000D01*
%TO.C,D6*%
X94300000Y-157920000D02*
X94300000Y-154080000D01*
X94540000Y-157920000D02*
X94540000Y-154080000D01*
X94420000Y-157920000D02*
X94420000Y-154080000D01*
X101000000Y-154080000D02*
X101000000Y-154560000D01*
X93160000Y-154080000D02*
X101000000Y-154080000D01*
X93160000Y-154560000D02*
X93160000Y-154080000D01*
X101000000Y-157920000D02*
X101000000Y-157440000D01*
X93160000Y-157920000D02*
X101000000Y-157920000D01*
X93160000Y-157440000D02*
X93160000Y-157920000D01*
%TO.C,D3*%
X84170000Y-103950000D02*
X80330000Y-103950000D01*
X84170000Y-103710000D02*
X80330000Y-103710000D01*
X84170000Y-103830000D02*
X80330000Y-103830000D01*
X80330000Y-97250000D02*
X80810000Y-97250000D01*
X80330000Y-105090000D02*
X80330000Y-97250000D01*
X80810000Y-105090000D02*
X80330000Y-105090000D01*
X84170000Y-97250000D02*
X83690000Y-97250000D01*
X84170000Y-105090000D02*
X84170000Y-97250000D01*
X83690000Y-105090000D02*
X84170000Y-105090000D01*
%TO.C,D2*%
X69300000Y-157920000D02*
X69300000Y-154080000D01*
X69540000Y-157920000D02*
X69540000Y-154080000D01*
X69420000Y-157920000D02*
X69420000Y-154080000D01*
X76000000Y-154080000D02*
X76000000Y-154560000D01*
X68160000Y-154080000D02*
X76000000Y-154080000D01*
X68160000Y-154560000D02*
X68160000Y-154080000D01*
X76000000Y-157920000D02*
X76000000Y-157440000D01*
X68160000Y-157920000D02*
X76000000Y-157920000D01*
X68160000Y-157440000D02*
X68160000Y-157920000D01*
%TO.C,K1*%
D11*
X38132380Y-70811904D02*
X37132380Y-70811904D01*
X38132380Y-71383333D02*
X37560952Y-70954761D01*
X37132380Y-71383333D02*
X37703809Y-70811904D01*
X38132380Y-72335714D02*
X38132380Y-71764285D01*
X38132380Y-72050000D02*
X37132380Y-72050000D01*
X37275238Y-71954761D01*
X37370476Y-71859523D01*
X37418095Y-71764285D01*
%TO.C,U1*%
X139971904Y-53432380D02*
X139971904Y-54241904D01*
X139924285Y-54337142D01*
X139876666Y-54384761D01*
X139781428Y-54432380D01*
X139590952Y-54432380D01*
X139495714Y-54384761D01*
X139448095Y-54337142D01*
X139400476Y-54241904D01*
X139400476Y-53432380D01*
X138400476Y-54432380D02*
X138971904Y-54432380D01*
X138686190Y-54432380D02*
X138686190Y-53432380D01*
X138781428Y-53575238D01*
X138876666Y-53670476D01*
X138971904Y-53718095D01*
%TO.C,R10*%
X51082380Y-100437142D02*
X50606190Y-100103809D01*
X51082380Y-99865714D02*
X50082380Y-99865714D01*
X50082380Y-100246666D01*
X50130000Y-100341904D01*
X50177619Y-100389523D01*
X50272857Y-100437142D01*
X50415714Y-100437142D01*
X50510952Y-100389523D01*
X50558571Y-100341904D01*
X50606190Y-100246666D01*
X50606190Y-99865714D01*
X51082380Y-101389523D02*
X51082380Y-100818095D01*
X51082380Y-101103809D02*
X50082380Y-101103809D01*
X50225238Y-101008571D01*
X50320476Y-100913333D01*
X50368095Y-100818095D01*
X50082380Y-102008571D02*
X50082380Y-102103809D01*
X50130000Y-102199047D01*
X50177619Y-102246666D01*
X50272857Y-102294285D01*
X50463333Y-102341904D01*
X50701428Y-102341904D01*
X50891904Y-102294285D01*
X50987142Y-102246666D01*
X51034761Y-102199047D01*
X51082380Y-102103809D01*
X51082380Y-102008571D01*
X51034761Y-101913333D01*
X50987142Y-101865714D01*
X50891904Y-101818095D01*
X50701428Y-101770476D01*
X50463333Y-101770476D01*
X50272857Y-101818095D01*
X50177619Y-101865714D01*
X50130000Y-101913333D01*
X50082380Y-102008571D01*
%TO.C,R9*%
X51082380Y-143913333D02*
X50606190Y-143580000D01*
X51082380Y-143341904D02*
X50082380Y-143341904D01*
X50082380Y-143722857D01*
X50130000Y-143818095D01*
X50177619Y-143865714D01*
X50272857Y-143913333D01*
X50415714Y-143913333D01*
X50510952Y-143865714D01*
X50558571Y-143818095D01*
X50606190Y-143722857D01*
X50606190Y-143341904D01*
X51082380Y-144389523D02*
X51082380Y-144580000D01*
X51034761Y-144675238D01*
X50987142Y-144722857D01*
X50844285Y-144818095D01*
X50653809Y-144865714D01*
X50272857Y-144865714D01*
X50177619Y-144818095D01*
X50130000Y-144770476D01*
X50082380Y-144675238D01*
X50082380Y-144484761D01*
X50130000Y-144389523D01*
X50177619Y-144341904D01*
X50272857Y-144294285D01*
X50510952Y-144294285D01*
X50606190Y-144341904D01*
X50653809Y-144389523D01*
X50701428Y-144484761D01*
X50701428Y-144675238D01*
X50653809Y-144770476D01*
X50606190Y-144818095D01*
X50510952Y-144865714D01*
%TO.C,R8*%
X151082380Y-100913333D02*
X150606190Y-100580000D01*
X151082380Y-100341904D02*
X150082380Y-100341904D01*
X150082380Y-100722857D01*
X150130000Y-100818095D01*
X150177619Y-100865714D01*
X150272857Y-100913333D01*
X150415714Y-100913333D01*
X150510952Y-100865714D01*
X150558571Y-100818095D01*
X150606190Y-100722857D01*
X150606190Y-100341904D01*
X150510952Y-101484761D02*
X150463333Y-101389523D01*
X150415714Y-101341904D01*
X150320476Y-101294285D01*
X150272857Y-101294285D01*
X150177619Y-101341904D01*
X150130000Y-101389523D01*
X150082380Y-101484761D01*
X150082380Y-101675238D01*
X150130000Y-101770476D01*
X150177619Y-101818095D01*
X150272857Y-101865714D01*
X150320476Y-101865714D01*
X150415714Y-101818095D01*
X150463333Y-101770476D01*
X150510952Y-101675238D01*
X150510952Y-101484761D01*
X150558571Y-101389523D01*
X150606190Y-101341904D01*
X150701428Y-101294285D01*
X150891904Y-101294285D01*
X150987142Y-101341904D01*
X151034761Y-101389523D01*
X151082380Y-101484761D01*
X151082380Y-101675238D01*
X151034761Y-101770476D01*
X150987142Y-101818095D01*
X150891904Y-101865714D01*
X150701428Y-101865714D01*
X150606190Y-101818095D01*
X150558571Y-101770476D01*
X150510952Y-101675238D01*
%TO.C,R7*%
X151082380Y-143913333D02*
X150606190Y-143580000D01*
X151082380Y-143341904D02*
X150082380Y-143341904D01*
X150082380Y-143722857D01*
X150130000Y-143818095D01*
X150177619Y-143865714D01*
X150272857Y-143913333D01*
X150415714Y-143913333D01*
X150510952Y-143865714D01*
X150558571Y-143818095D01*
X150606190Y-143722857D01*
X150606190Y-143341904D01*
X150082380Y-144246666D02*
X150082380Y-144913333D01*
X151082380Y-144484761D01*
%TO.C,R6*%
X126082380Y-100913333D02*
X125606190Y-100580000D01*
X126082380Y-100341904D02*
X125082380Y-100341904D01*
X125082380Y-100722857D01*
X125130000Y-100818095D01*
X125177619Y-100865714D01*
X125272857Y-100913333D01*
X125415714Y-100913333D01*
X125510952Y-100865714D01*
X125558571Y-100818095D01*
X125606190Y-100722857D01*
X125606190Y-100341904D01*
X125082380Y-101770476D02*
X125082380Y-101580000D01*
X125130000Y-101484761D01*
X125177619Y-101437142D01*
X125320476Y-101341904D01*
X125510952Y-101294285D01*
X125891904Y-101294285D01*
X125987142Y-101341904D01*
X126034761Y-101389523D01*
X126082380Y-101484761D01*
X126082380Y-101675238D01*
X126034761Y-101770476D01*
X125987142Y-101818095D01*
X125891904Y-101865714D01*
X125653809Y-101865714D01*
X125558571Y-101818095D01*
X125510952Y-101770476D01*
X125463333Y-101675238D01*
X125463333Y-101484761D01*
X125510952Y-101389523D01*
X125558571Y-101341904D01*
X125653809Y-101294285D01*
%TO.C,R5*%
X126082380Y-143913333D02*
X125606190Y-143580000D01*
X126082380Y-143341904D02*
X125082380Y-143341904D01*
X125082380Y-143722857D01*
X125130000Y-143818095D01*
X125177619Y-143865714D01*
X125272857Y-143913333D01*
X125415714Y-143913333D01*
X125510952Y-143865714D01*
X125558571Y-143818095D01*
X125606190Y-143722857D01*
X125606190Y-143341904D01*
X125082380Y-144818095D02*
X125082380Y-144341904D01*
X125558571Y-144294285D01*
X125510952Y-144341904D01*
X125463333Y-144437142D01*
X125463333Y-144675238D01*
X125510952Y-144770476D01*
X125558571Y-144818095D01*
X125653809Y-144865714D01*
X125891904Y-144865714D01*
X125987142Y-144818095D01*
X126034761Y-144770476D01*
X126082380Y-144675238D01*
X126082380Y-144437142D01*
X126034761Y-144341904D01*
X125987142Y-144294285D01*
%TO.C,R4*%
X101082380Y-100913333D02*
X100606190Y-100580000D01*
X101082380Y-100341904D02*
X100082380Y-100341904D01*
X100082380Y-100722857D01*
X100130000Y-100818095D01*
X100177619Y-100865714D01*
X100272857Y-100913333D01*
X100415714Y-100913333D01*
X100510952Y-100865714D01*
X100558571Y-100818095D01*
X100606190Y-100722857D01*
X100606190Y-100341904D01*
X100415714Y-101770476D02*
X101082380Y-101770476D01*
X100034761Y-101532380D02*
X100749047Y-101294285D01*
X100749047Y-101913333D01*
%TO.C,R3*%
X101082380Y-143913333D02*
X100606190Y-143580000D01*
X101082380Y-143341904D02*
X100082380Y-143341904D01*
X100082380Y-143722857D01*
X100130000Y-143818095D01*
X100177619Y-143865714D01*
X100272857Y-143913333D01*
X100415714Y-143913333D01*
X100510952Y-143865714D01*
X100558571Y-143818095D01*
X100606190Y-143722857D01*
X100606190Y-143341904D01*
X100082380Y-144246666D02*
X100082380Y-144865714D01*
X100463333Y-144532380D01*
X100463333Y-144675238D01*
X100510952Y-144770476D01*
X100558571Y-144818095D01*
X100653809Y-144865714D01*
X100891904Y-144865714D01*
X100987142Y-144818095D01*
X101034761Y-144770476D01*
X101082380Y-144675238D01*
X101082380Y-144389523D01*
X101034761Y-144294285D01*
X100987142Y-144246666D01*
%TO.C,R2*%
X76082380Y-100913333D02*
X75606190Y-100580000D01*
X76082380Y-100341904D02*
X75082380Y-100341904D01*
X75082380Y-100722857D01*
X75130000Y-100818095D01*
X75177619Y-100865714D01*
X75272857Y-100913333D01*
X75415714Y-100913333D01*
X75510952Y-100865714D01*
X75558571Y-100818095D01*
X75606190Y-100722857D01*
X75606190Y-100341904D01*
X75177619Y-101294285D02*
X75130000Y-101341904D01*
X75082380Y-101437142D01*
X75082380Y-101675238D01*
X75130000Y-101770476D01*
X75177619Y-101818095D01*
X75272857Y-101865714D01*
X75368095Y-101865714D01*
X75510952Y-101818095D01*
X76082380Y-101246666D01*
X76082380Y-101865714D01*
%TO.C,R1*%
X76082380Y-143913333D02*
X75606190Y-143580000D01*
X76082380Y-143341904D02*
X75082380Y-143341904D01*
X75082380Y-143722857D01*
X75130000Y-143818095D01*
X75177619Y-143865714D01*
X75272857Y-143913333D01*
X75415714Y-143913333D01*
X75510952Y-143865714D01*
X75558571Y-143818095D01*
X75606190Y-143722857D01*
X75606190Y-143341904D01*
X76082380Y-144865714D02*
X76082380Y-144294285D01*
X76082380Y-144580000D02*
X75082380Y-144580000D01*
X75225238Y-144484761D01*
X75320476Y-144389523D01*
X75368095Y-144294285D01*
%TO.C,Q5*%
X49987619Y-112094761D02*
X49940000Y-111999523D01*
X49844761Y-111904285D01*
X49701904Y-111761428D01*
X49654285Y-111666190D01*
X49654285Y-111570952D01*
X49892380Y-111618571D02*
X49844761Y-111523333D01*
X49749523Y-111428095D01*
X49559047Y-111380476D01*
X49225714Y-111380476D01*
X49035238Y-111428095D01*
X48940000Y-111523333D01*
X48892380Y-111618571D01*
X48892380Y-111809047D01*
X48940000Y-111904285D01*
X49035238Y-111999523D01*
X49225714Y-112047142D01*
X49559047Y-112047142D01*
X49749523Y-111999523D01*
X49844761Y-111904285D01*
X49892380Y-111809047D01*
X49892380Y-111618571D01*
X48892380Y-112951904D02*
X48892380Y-112475714D01*
X49368571Y-112428095D01*
X49320952Y-112475714D01*
X49273333Y-112570952D01*
X49273333Y-112809047D01*
X49320952Y-112904285D01*
X49368571Y-112951904D01*
X49463809Y-112999523D01*
X49701904Y-112999523D01*
X49797142Y-112951904D01*
X49844761Y-112904285D01*
X49892380Y-112809047D01*
X49892380Y-112570952D01*
X49844761Y-112475714D01*
X49797142Y-112428095D01*
%TO.C,Q4*%
X149987619Y-112094761D02*
X149940000Y-111999523D01*
X149844761Y-111904285D01*
X149701904Y-111761428D01*
X149654285Y-111666190D01*
X149654285Y-111570952D01*
X149892380Y-111618571D02*
X149844761Y-111523333D01*
X149749523Y-111428095D01*
X149559047Y-111380476D01*
X149225714Y-111380476D01*
X149035238Y-111428095D01*
X148940000Y-111523333D01*
X148892380Y-111618571D01*
X148892380Y-111809047D01*
X148940000Y-111904285D01*
X149035238Y-111999523D01*
X149225714Y-112047142D01*
X149559047Y-112047142D01*
X149749523Y-111999523D01*
X149844761Y-111904285D01*
X149892380Y-111809047D01*
X149892380Y-111618571D01*
X149225714Y-112904285D02*
X149892380Y-112904285D01*
X148844761Y-112666190D02*
X149559047Y-112428095D01*
X149559047Y-113047142D01*
%TO.C,Q3*%
X124987619Y-112094761D02*
X124940000Y-111999523D01*
X124844761Y-111904285D01*
X124701904Y-111761428D01*
X124654285Y-111666190D01*
X124654285Y-111570952D01*
X124892380Y-111618571D02*
X124844761Y-111523333D01*
X124749523Y-111428095D01*
X124559047Y-111380476D01*
X124225714Y-111380476D01*
X124035238Y-111428095D01*
X123940000Y-111523333D01*
X123892380Y-111618571D01*
X123892380Y-111809047D01*
X123940000Y-111904285D01*
X124035238Y-111999523D01*
X124225714Y-112047142D01*
X124559047Y-112047142D01*
X124749523Y-111999523D01*
X124844761Y-111904285D01*
X124892380Y-111809047D01*
X124892380Y-111618571D01*
X123892380Y-112380476D02*
X123892380Y-112999523D01*
X124273333Y-112666190D01*
X124273333Y-112809047D01*
X124320952Y-112904285D01*
X124368571Y-112951904D01*
X124463809Y-112999523D01*
X124701904Y-112999523D01*
X124797142Y-112951904D01*
X124844761Y-112904285D01*
X124892380Y-112809047D01*
X124892380Y-112523333D01*
X124844761Y-112428095D01*
X124797142Y-112380476D01*
%TO.C,Q2*%
X99987619Y-112094761D02*
X99940000Y-111999523D01*
X99844761Y-111904285D01*
X99701904Y-111761428D01*
X99654285Y-111666190D01*
X99654285Y-111570952D01*
X99892380Y-111618571D02*
X99844761Y-111523333D01*
X99749523Y-111428095D01*
X99559047Y-111380476D01*
X99225714Y-111380476D01*
X99035238Y-111428095D01*
X98940000Y-111523333D01*
X98892380Y-111618571D01*
X98892380Y-111809047D01*
X98940000Y-111904285D01*
X99035238Y-111999523D01*
X99225714Y-112047142D01*
X99559047Y-112047142D01*
X99749523Y-111999523D01*
X99844761Y-111904285D01*
X99892380Y-111809047D01*
X99892380Y-111618571D01*
X98987619Y-112428095D02*
X98940000Y-112475714D01*
X98892380Y-112570952D01*
X98892380Y-112809047D01*
X98940000Y-112904285D01*
X98987619Y-112951904D01*
X99082857Y-112999523D01*
X99178095Y-112999523D01*
X99320952Y-112951904D01*
X99892380Y-112380476D01*
X99892380Y-112999523D01*
%TO.C,Q1*%
X74987619Y-112094761D02*
X74940000Y-111999523D01*
X74844761Y-111904285D01*
X74701904Y-111761428D01*
X74654285Y-111666190D01*
X74654285Y-111570952D01*
X74892380Y-111618571D02*
X74844761Y-111523333D01*
X74749523Y-111428095D01*
X74559047Y-111380476D01*
X74225714Y-111380476D01*
X74035238Y-111428095D01*
X73940000Y-111523333D01*
X73892380Y-111618571D01*
X73892380Y-111809047D01*
X73940000Y-111904285D01*
X74035238Y-111999523D01*
X74225714Y-112047142D01*
X74559047Y-112047142D01*
X74749523Y-111999523D01*
X74844761Y-111904285D01*
X74892380Y-111809047D01*
X74892380Y-111618571D01*
X74892380Y-112999523D02*
X74892380Y-112428095D01*
X74892380Y-112713809D02*
X73892380Y-112713809D01*
X74035238Y-112618571D01*
X74130476Y-112523333D01*
X74178095Y-112428095D01*
%TO.C,J1*%
X170633333Y-55732380D02*
X170633333Y-56446666D01*
X170680952Y-56589523D01*
X170776190Y-56684761D01*
X170919047Y-56732380D01*
X171014285Y-56732380D01*
X169633333Y-56732380D02*
X170204761Y-56732380D01*
X169919047Y-56732380D02*
X169919047Y-55732380D01*
X170014285Y-55875238D01*
X170109523Y-55970476D01*
X170204761Y-56018095D01*
%TO.C,D19*%
X61372380Y-99705714D02*
X60372380Y-99705714D01*
X60372380Y-99943809D01*
X60420000Y-100086666D01*
X60515238Y-100181904D01*
X60610476Y-100229523D01*
X60800952Y-100277142D01*
X60943809Y-100277142D01*
X61134285Y-100229523D01*
X61229523Y-100181904D01*
X61324761Y-100086666D01*
X61372380Y-99943809D01*
X61372380Y-99705714D01*
X61372380Y-101229523D02*
X61372380Y-100658095D01*
X61372380Y-100943809D02*
X60372380Y-100943809D01*
X60515238Y-100848571D01*
X60610476Y-100753333D01*
X60658095Y-100658095D01*
X61372380Y-101705714D02*
X61372380Y-101896190D01*
X61324761Y-101991428D01*
X61277142Y-102039047D01*
X61134285Y-102134285D01*
X60943809Y-102181904D01*
X60562857Y-102181904D01*
X60467619Y-102134285D01*
X60420000Y-102086666D01*
X60372380Y-101991428D01*
X60372380Y-101800952D01*
X60420000Y-101705714D01*
X60467619Y-101658095D01*
X60562857Y-101610476D01*
X60800952Y-101610476D01*
X60896190Y-101658095D01*
X60943809Y-101705714D01*
X60991428Y-101800952D01*
X60991428Y-101991428D01*
X60943809Y-102086666D01*
X60896190Y-102134285D01*
X60800952Y-102181904D01*
X60652380Y-105738095D02*
X59652380Y-105738095D01*
X60652380Y-106309523D02*
X60080952Y-105880952D01*
X59652380Y-106309523D02*
X60223809Y-105738095D01*
%TO.C,D15*%
X161372380Y-99705714D02*
X160372380Y-99705714D01*
X160372380Y-99943809D01*
X160420000Y-100086666D01*
X160515238Y-100181904D01*
X160610476Y-100229523D01*
X160800952Y-100277142D01*
X160943809Y-100277142D01*
X161134285Y-100229523D01*
X161229523Y-100181904D01*
X161324761Y-100086666D01*
X161372380Y-99943809D01*
X161372380Y-99705714D01*
X161372380Y-101229523D02*
X161372380Y-100658095D01*
X161372380Y-100943809D02*
X160372380Y-100943809D01*
X160515238Y-100848571D01*
X160610476Y-100753333D01*
X160658095Y-100658095D01*
X160372380Y-102134285D02*
X160372380Y-101658095D01*
X160848571Y-101610476D01*
X160800952Y-101658095D01*
X160753333Y-101753333D01*
X160753333Y-101991428D01*
X160800952Y-102086666D01*
X160848571Y-102134285D01*
X160943809Y-102181904D01*
X161181904Y-102181904D01*
X161277142Y-102134285D01*
X161324761Y-102086666D01*
X161372380Y-101991428D01*
X161372380Y-101753333D01*
X161324761Y-101658095D01*
X161277142Y-101610476D01*
X160652380Y-105738095D02*
X159652380Y-105738095D01*
X160652380Y-106309523D02*
X160080952Y-105880952D01*
X159652380Y-106309523D02*
X160223809Y-105738095D01*
%TO.C,D14*%
X148294285Y-159372380D02*
X148294285Y-158372380D01*
X148056190Y-158372380D01*
X147913333Y-158420000D01*
X147818095Y-158515238D01*
X147770476Y-158610476D01*
X147722857Y-158800952D01*
X147722857Y-158943809D01*
X147770476Y-159134285D01*
X147818095Y-159229523D01*
X147913333Y-159324761D01*
X148056190Y-159372380D01*
X148294285Y-159372380D01*
X146770476Y-159372380D02*
X147341904Y-159372380D01*
X147056190Y-159372380D02*
X147056190Y-158372380D01*
X147151428Y-158515238D01*
X147246666Y-158610476D01*
X147341904Y-158658095D01*
X145913333Y-158705714D02*
X145913333Y-159372380D01*
X146151428Y-158324761D02*
X146389523Y-159039047D01*
X145770476Y-159039047D01*
X142261904Y-158652380D02*
X142261904Y-157652380D01*
X141690476Y-158652380D02*
X142119047Y-158080952D01*
X141690476Y-157652380D02*
X142261904Y-158223809D01*
%TO.C,D11*%
X136372380Y-99705714D02*
X135372380Y-99705714D01*
X135372380Y-99943809D01*
X135420000Y-100086666D01*
X135515238Y-100181904D01*
X135610476Y-100229523D01*
X135800952Y-100277142D01*
X135943809Y-100277142D01*
X136134285Y-100229523D01*
X136229523Y-100181904D01*
X136324761Y-100086666D01*
X136372380Y-99943809D01*
X136372380Y-99705714D01*
X136372380Y-101229523D02*
X136372380Y-100658095D01*
X136372380Y-100943809D02*
X135372380Y-100943809D01*
X135515238Y-100848571D01*
X135610476Y-100753333D01*
X135658095Y-100658095D01*
X136372380Y-102181904D02*
X136372380Y-101610476D01*
X136372380Y-101896190D02*
X135372380Y-101896190D01*
X135515238Y-101800952D01*
X135610476Y-101705714D01*
X135658095Y-101610476D01*
X135652380Y-105738095D02*
X134652380Y-105738095D01*
X135652380Y-106309523D02*
X135080952Y-105880952D01*
X134652380Y-106309523D02*
X135223809Y-105738095D01*
%TO.C,D10*%
X123294285Y-159372380D02*
X123294285Y-158372380D01*
X123056190Y-158372380D01*
X122913333Y-158420000D01*
X122818095Y-158515238D01*
X122770476Y-158610476D01*
X122722857Y-158800952D01*
X122722857Y-158943809D01*
X122770476Y-159134285D01*
X122818095Y-159229523D01*
X122913333Y-159324761D01*
X123056190Y-159372380D01*
X123294285Y-159372380D01*
X121770476Y-159372380D02*
X122341904Y-159372380D01*
X122056190Y-159372380D02*
X122056190Y-158372380D01*
X122151428Y-158515238D01*
X122246666Y-158610476D01*
X122341904Y-158658095D01*
X121151428Y-158372380D02*
X121056190Y-158372380D01*
X120960952Y-158420000D01*
X120913333Y-158467619D01*
X120865714Y-158562857D01*
X120818095Y-158753333D01*
X120818095Y-158991428D01*
X120865714Y-159181904D01*
X120913333Y-159277142D01*
X120960952Y-159324761D01*
X121056190Y-159372380D01*
X121151428Y-159372380D01*
X121246666Y-159324761D01*
X121294285Y-159277142D01*
X121341904Y-159181904D01*
X121389523Y-158991428D01*
X121389523Y-158753333D01*
X121341904Y-158562857D01*
X121294285Y-158467619D01*
X121246666Y-158420000D01*
X121151428Y-158372380D01*
X117261904Y-158652380D02*
X117261904Y-157652380D01*
X116690476Y-158652380D02*
X117119047Y-158080952D01*
X116690476Y-157652380D02*
X117261904Y-158223809D01*
%TO.C,D7*%
X111372380Y-100181904D02*
X110372380Y-100181904D01*
X110372380Y-100420000D01*
X110420000Y-100562857D01*
X110515238Y-100658095D01*
X110610476Y-100705714D01*
X110800952Y-100753333D01*
X110943809Y-100753333D01*
X111134285Y-100705714D01*
X111229523Y-100658095D01*
X111324761Y-100562857D01*
X111372380Y-100420000D01*
X111372380Y-100181904D01*
X110372380Y-101086666D02*
X110372380Y-101753333D01*
X111372380Y-101324761D01*
X110652380Y-105738095D02*
X109652380Y-105738095D01*
X110652380Y-106309523D02*
X110080952Y-105880952D01*
X109652380Y-106309523D02*
X110223809Y-105738095D01*
%TO.C,D6*%
X97818095Y-159372380D02*
X97818095Y-158372380D01*
X97580000Y-158372380D01*
X97437142Y-158420000D01*
X97341904Y-158515238D01*
X97294285Y-158610476D01*
X97246666Y-158800952D01*
X97246666Y-158943809D01*
X97294285Y-159134285D01*
X97341904Y-159229523D01*
X97437142Y-159324761D01*
X97580000Y-159372380D01*
X97818095Y-159372380D01*
X96389523Y-158372380D02*
X96580000Y-158372380D01*
X96675238Y-158420000D01*
X96722857Y-158467619D01*
X96818095Y-158610476D01*
X96865714Y-158800952D01*
X96865714Y-159181904D01*
X96818095Y-159277142D01*
X96770476Y-159324761D01*
X96675238Y-159372380D01*
X96484761Y-159372380D01*
X96389523Y-159324761D01*
X96341904Y-159277142D01*
X96294285Y-159181904D01*
X96294285Y-158943809D01*
X96341904Y-158848571D01*
X96389523Y-158800952D01*
X96484761Y-158753333D01*
X96675238Y-158753333D01*
X96770476Y-158800952D01*
X96818095Y-158848571D01*
X96865714Y-158943809D01*
X92261904Y-158652380D02*
X92261904Y-157652380D01*
X91690476Y-158652380D02*
X92119047Y-158080952D01*
X91690476Y-157652380D02*
X92261904Y-158223809D01*
%TO.C,D3*%
X85622380Y-100431904D02*
X84622380Y-100431904D01*
X84622380Y-100670000D01*
X84670000Y-100812857D01*
X84765238Y-100908095D01*
X84860476Y-100955714D01*
X85050952Y-101003333D01*
X85193809Y-101003333D01*
X85384285Y-100955714D01*
X85479523Y-100908095D01*
X85574761Y-100812857D01*
X85622380Y-100670000D01*
X85622380Y-100431904D01*
X84622380Y-101336666D02*
X84622380Y-101955714D01*
X85003333Y-101622380D01*
X85003333Y-101765238D01*
X85050952Y-101860476D01*
X85098571Y-101908095D01*
X85193809Y-101955714D01*
X85431904Y-101955714D01*
X85527142Y-101908095D01*
X85574761Y-101860476D01*
X85622380Y-101765238D01*
X85622380Y-101479523D01*
X85574761Y-101384285D01*
X85527142Y-101336666D01*
X84902380Y-105988095D02*
X83902380Y-105988095D01*
X84902380Y-106559523D02*
X84330952Y-106130952D01*
X83902380Y-106559523D02*
X84473809Y-105988095D01*
%TO.C,D2*%
X72818095Y-159372380D02*
X72818095Y-158372380D01*
X72580000Y-158372380D01*
X72437142Y-158420000D01*
X72341904Y-158515238D01*
X72294285Y-158610476D01*
X72246666Y-158800952D01*
X72246666Y-158943809D01*
X72294285Y-159134285D01*
X72341904Y-159229523D01*
X72437142Y-159324761D01*
X72580000Y-159372380D01*
X72818095Y-159372380D01*
X71865714Y-158467619D02*
X71818095Y-158420000D01*
X71722857Y-158372380D01*
X71484761Y-158372380D01*
X71389523Y-158420000D01*
X71341904Y-158467619D01*
X71294285Y-158562857D01*
X71294285Y-158658095D01*
X71341904Y-158800952D01*
X71913333Y-159372380D01*
X71294285Y-159372380D01*
X67261904Y-158652380D02*
X67261904Y-157652380D01*
X66690476Y-158652380D02*
X67119047Y-158080952D01*
X66690476Y-157652380D02*
X67261904Y-158223809D01*
%TD*%
M02*
