%TF.GenerationSoftware,KiCad,Pcbnew,(5.1.10)-1*%
%TF.CreationDate,2022-08-30T02:24:47-07:00*%
%TF.ProjectId,Garden_Board,47617264-656e-45f4-926f-6172642e6b69,rev?*%
%TF.SameCoordinates,Original*%
%TF.FileFunction,Legend,Bot*%
%TF.FilePolarity,Positive*%
%FSLAX46Y46*%
G04 Gerber Fmt 4.6, Leading zero omitted, Abs format (unit mm)*
G04 Created by KiCad (PCBNEW (5.1.10)-1) date 2022-08-30 02:24:47*
%MOMM*%
%LPD*%
G01*
G04 APERTURE LIST*
%ADD10C,0.120000*%
%ADD11C,0.150000*%
G04 APERTURE END LIST*
D10*
%TO.C,U1*%
X150721000Y-56810000D02*
X140480000Y-56810000D01*
X150721000Y-40920000D02*
X140480000Y-40920000D01*
X150721000Y-40920000D02*
X150721000Y-56810000D01*
X140480000Y-40920000D02*
X140480000Y-56810000D01*
X149000000Y-56810000D02*
X149000000Y-59450000D01*
X147300000Y-56810000D02*
X147300000Y-59450000D01*
X145600000Y-56810000D02*
X145600000Y-59450000D01*
X143900000Y-56810000D02*
X143900000Y-59450000D01*
X142200000Y-56810000D02*
X142200000Y-59450000D01*
%TO.C,D19*%
X59120000Y-104310000D02*
X56880000Y-104310000D01*
X56880000Y-104310000D02*
X56880000Y-100070000D01*
X56880000Y-100070000D02*
X59120000Y-100070000D01*
X59120000Y-100070000D02*
X59120000Y-104310000D01*
X58000000Y-104960000D02*
X58000000Y-104310000D01*
X58000000Y-99420000D02*
X58000000Y-100070000D01*
X59120000Y-103590000D02*
X56880000Y-103590000D01*
X59120000Y-103470000D02*
X56880000Y-103470000D01*
X59120000Y-103710000D02*
X56880000Y-103710000D01*
%TO.C,D18*%
X43690000Y-157120000D02*
X43690000Y-154880000D01*
X43690000Y-154880000D02*
X47930000Y-154880000D01*
X47930000Y-154880000D02*
X47930000Y-157120000D01*
X47930000Y-157120000D02*
X43690000Y-157120000D01*
X43040000Y-156000000D02*
X43690000Y-156000000D01*
X48580000Y-156000000D02*
X47930000Y-156000000D01*
X44410000Y-157120000D02*
X44410000Y-154880000D01*
X44530000Y-157120000D02*
X44530000Y-154880000D01*
X44290000Y-157120000D02*
X44290000Y-154880000D01*
%TO.C,D15*%
X159120000Y-104310000D02*
X156880000Y-104310000D01*
X156880000Y-104310000D02*
X156880000Y-100070000D01*
X156880000Y-100070000D02*
X159120000Y-100070000D01*
X159120000Y-100070000D02*
X159120000Y-104310000D01*
X158000000Y-104960000D02*
X158000000Y-104310000D01*
X158000000Y-99420000D02*
X158000000Y-100070000D01*
X159120000Y-103590000D02*
X156880000Y-103590000D01*
X159120000Y-103470000D02*
X156880000Y-103470000D01*
X159120000Y-103710000D02*
X156880000Y-103710000D01*
%TO.C,D14*%
X143690000Y-157120000D02*
X143690000Y-154880000D01*
X143690000Y-154880000D02*
X147930000Y-154880000D01*
X147930000Y-154880000D02*
X147930000Y-157120000D01*
X147930000Y-157120000D02*
X143690000Y-157120000D01*
X143040000Y-156000000D02*
X143690000Y-156000000D01*
X148580000Y-156000000D02*
X147930000Y-156000000D01*
X144410000Y-157120000D02*
X144410000Y-154880000D01*
X144530000Y-157120000D02*
X144530000Y-154880000D01*
X144290000Y-157120000D02*
X144290000Y-154880000D01*
%TO.C,D11*%
X134120000Y-104310000D02*
X131880000Y-104310000D01*
X131880000Y-104310000D02*
X131880000Y-100070000D01*
X131880000Y-100070000D02*
X134120000Y-100070000D01*
X134120000Y-100070000D02*
X134120000Y-104310000D01*
X133000000Y-104960000D02*
X133000000Y-104310000D01*
X133000000Y-99420000D02*
X133000000Y-100070000D01*
X134120000Y-103590000D02*
X131880000Y-103590000D01*
X134120000Y-103470000D02*
X131880000Y-103470000D01*
X134120000Y-103710000D02*
X131880000Y-103710000D01*
%TO.C,D10*%
X118690000Y-157120000D02*
X118690000Y-154880000D01*
X118690000Y-154880000D02*
X122930000Y-154880000D01*
X122930000Y-154880000D02*
X122930000Y-157120000D01*
X122930000Y-157120000D02*
X118690000Y-157120000D01*
X118040000Y-156000000D02*
X118690000Y-156000000D01*
X123580000Y-156000000D02*
X122930000Y-156000000D01*
X119410000Y-157120000D02*
X119410000Y-154880000D01*
X119530000Y-157120000D02*
X119530000Y-154880000D01*
X119290000Y-157120000D02*
X119290000Y-154880000D01*
%TO.C,D7*%
X109120000Y-104310000D02*
X106880000Y-104310000D01*
X106880000Y-104310000D02*
X106880000Y-100070000D01*
X106880000Y-100070000D02*
X109120000Y-100070000D01*
X109120000Y-100070000D02*
X109120000Y-104310000D01*
X108000000Y-104960000D02*
X108000000Y-104310000D01*
X108000000Y-99420000D02*
X108000000Y-100070000D01*
X109120000Y-103590000D02*
X106880000Y-103590000D01*
X109120000Y-103470000D02*
X106880000Y-103470000D01*
X109120000Y-103710000D02*
X106880000Y-103710000D01*
%TO.C,D6*%
X93690000Y-157120000D02*
X93690000Y-154880000D01*
X93690000Y-154880000D02*
X97930000Y-154880000D01*
X97930000Y-154880000D02*
X97930000Y-157120000D01*
X97930000Y-157120000D02*
X93690000Y-157120000D01*
X93040000Y-156000000D02*
X93690000Y-156000000D01*
X98580000Y-156000000D02*
X97930000Y-156000000D01*
X94410000Y-157120000D02*
X94410000Y-154880000D01*
X94530000Y-157120000D02*
X94530000Y-154880000D01*
X94290000Y-157120000D02*
X94290000Y-154880000D01*
%TO.C,D3*%
X83370000Y-104560000D02*
X81130000Y-104560000D01*
X81130000Y-104560000D02*
X81130000Y-100320000D01*
X81130000Y-100320000D02*
X83370000Y-100320000D01*
X83370000Y-100320000D02*
X83370000Y-104560000D01*
X82250000Y-105210000D02*
X82250000Y-104560000D01*
X82250000Y-99670000D02*
X82250000Y-100320000D01*
X83370000Y-103840000D02*
X81130000Y-103840000D01*
X83370000Y-103720000D02*
X81130000Y-103720000D01*
X83370000Y-103960000D02*
X81130000Y-103960000D01*
%TO.C,D2*%
X68690000Y-157120000D02*
X68690000Y-154880000D01*
X68690000Y-154880000D02*
X72930000Y-154880000D01*
X72930000Y-154880000D02*
X72930000Y-157120000D01*
X72930000Y-157120000D02*
X68690000Y-157120000D01*
X68040000Y-156000000D02*
X68690000Y-156000000D01*
X73580000Y-156000000D02*
X72930000Y-156000000D01*
X69410000Y-157120000D02*
X69410000Y-154880000D01*
X69530000Y-157120000D02*
X69530000Y-154880000D01*
X69290000Y-157120000D02*
X69290000Y-154880000D01*
%TO.C,Q5*%
X57580000Y-109730000D02*
X47340000Y-109730000D01*
X57580000Y-114371000D02*
X47340000Y-114371000D01*
X57580000Y-109730000D02*
X57580000Y-114371000D01*
X47340000Y-109730000D02*
X47340000Y-114371000D01*
X57580000Y-111240000D02*
X47340000Y-111240000D01*
X54310000Y-109730000D02*
X54310000Y-111240000D01*
X50609000Y-109730000D02*
X50609000Y-111240000D01*
%TO.C,Q4*%
X158080000Y-109730000D02*
X147840000Y-109730000D01*
X158080000Y-114371000D02*
X147840000Y-114371000D01*
X158080000Y-109730000D02*
X158080000Y-114371000D01*
X147840000Y-109730000D02*
X147840000Y-114371000D01*
X158080000Y-111240000D02*
X147840000Y-111240000D01*
X154810000Y-109730000D02*
X154810000Y-111240000D01*
X151109000Y-109730000D02*
X151109000Y-111240000D01*
%TO.C,Q3*%
X132580000Y-109730000D02*
X122340000Y-109730000D01*
X132580000Y-114371000D02*
X122340000Y-114371000D01*
X132580000Y-109730000D02*
X132580000Y-114371000D01*
X122340000Y-109730000D02*
X122340000Y-114371000D01*
X132580000Y-111240000D02*
X122340000Y-111240000D01*
X129310000Y-109730000D02*
X129310000Y-111240000D01*
X125609000Y-109730000D02*
X125609000Y-111240000D01*
%TO.C,Q2*%
X107580000Y-109730000D02*
X97340000Y-109730000D01*
X107580000Y-114371000D02*
X97340000Y-114371000D01*
X107580000Y-109730000D02*
X107580000Y-114371000D01*
X97340000Y-109730000D02*
X97340000Y-114371000D01*
X107580000Y-111240000D02*
X97340000Y-111240000D01*
X104310000Y-109730000D02*
X104310000Y-111240000D01*
X100609000Y-109730000D02*
X100609000Y-111240000D01*
%TO.C,Q1*%
X82580000Y-109730000D02*
X72340000Y-109730000D01*
X82580000Y-114371000D02*
X72340000Y-114371000D01*
X82580000Y-109730000D02*
X82580000Y-114371000D01*
X72340000Y-109730000D02*
X72340000Y-114371000D01*
X82580000Y-111240000D02*
X72340000Y-111240000D01*
X79310000Y-109730000D02*
X79310000Y-111240000D01*
X75609000Y-109730000D02*
X75609000Y-111240000D01*
%TO.C,K1*%
X46090000Y-57350000D02*
X33390000Y-57350000D01*
X46090000Y-86550000D02*
X46090000Y-57350000D01*
X33390000Y-86550000D02*
X46090000Y-86550000D01*
X33390000Y-57350000D02*
X33390000Y-86550000D01*
%TO.C,R10*%
X51630000Y-97810000D02*
X54370000Y-97810000D01*
X54370000Y-97810000D02*
X54370000Y-104350000D01*
X54370000Y-104350000D02*
X51630000Y-104350000D01*
X51630000Y-104350000D02*
X51630000Y-97810000D01*
X53000000Y-97040000D02*
X53000000Y-97810000D01*
X53000000Y-105120000D02*
X53000000Y-104350000D01*
%TO.C,R9*%
X51630000Y-140810000D02*
X54370000Y-140810000D01*
X54370000Y-140810000D02*
X54370000Y-147350000D01*
X54370000Y-147350000D02*
X51630000Y-147350000D01*
X51630000Y-147350000D02*
X51630000Y-140810000D01*
X53000000Y-140040000D02*
X53000000Y-140810000D01*
X53000000Y-148120000D02*
X53000000Y-147350000D01*
%TO.C,R8*%
X151630000Y-97810000D02*
X154370000Y-97810000D01*
X154370000Y-97810000D02*
X154370000Y-104350000D01*
X154370000Y-104350000D02*
X151630000Y-104350000D01*
X151630000Y-104350000D02*
X151630000Y-97810000D01*
X153000000Y-97040000D02*
X153000000Y-97810000D01*
X153000000Y-105120000D02*
X153000000Y-104350000D01*
%TO.C,R7*%
X151630000Y-140810000D02*
X154370000Y-140810000D01*
X154370000Y-140810000D02*
X154370000Y-147350000D01*
X154370000Y-147350000D02*
X151630000Y-147350000D01*
X151630000Y-147350000D02*
X151630000Y-140810000D01*
X153000000Y-140040000D02*
X153000000Y-140810000D01*
X153000000Y-148120000D02*
X153000000Y-147350000D01*
%TO.C,R6*%
X126630000Y-97810000D02*
X129370000Y-97810000D01*
X129370000Y-97810000D02*
X129370000Y-104350000D01*
X129370000Y-104350000D02*
X126630000Y-104350000D01*
X126630000Y-104350000D02*
X126630000Y-97810000D01*
X128000000Y-97040000D02*
X128000000Y-97810000D01*
X128000000Y-105120000D02*
X128000000Y-104350000D01*
%TO.C,R5*%
X126630000Y-140810000D02*
X129370000Y-140810000D01*
X129370000Y-140810000D02*
X129370000Y-147350000D01*
X129370000Y-147350000D02*
X126630000Y-147350000D01*
X126630000Y-147350000D02*
X126630000Y-140810000D01*
X128000000Y-140040000D02*
X128000000Y-140810000D01*
X128000000Y-148120000D02*
X128000000Y-147350000D01*
%TO.C,R4*%
X101630000Y-97810000D02*
X104370000Y-97810000D01*
X104370000Y-97810000D02*
X104370000Y-104350000D01*
X104370000Y-104350000D02*
X101630000Y-104350000D01*
X101630000Y-104350000D02*
X101630000Y-97810000D01*
X103000000Y-97040000D02*
X103000000Y-97810000D01*
X103000000Y-105120000D02*
X103000000Y-104350000D01*
%TO.C,R3*%
X101630000Y-140810000D02*
X104370000Y-140810000D01*
X104370000Y-140810000D02*
X104370000Y-147350000D01*
X104370000Y-147350000D02*
X101630000Y-147350000D01*
X101630000Y-147350000D02*
X101630000Y-140810000D01*
X103000000Y-140040000D02*
X103000000Y-140810000D01*
X103000000Y-148120000D02*
X103000000Y-147350000D01*
%TO.C,R2*%
X76630000Y-97810000D02*
X79370000Y-97810000D01*
X79370000Y-97810000D02*
X79370000Y-104350000D01*
X79370000Y-104350000D02*
X76630000Y-104350000D01*
X76630000Y-104350000D02*
X76630000Y-97810000D01*
X78000000Y-97040000D02*
X78000000Y-97810000D01*
X78000000Y-105120000D02*
X78000000Y-104350000D01*
%TO.C,R1*%
X76630000Y-140810000D02*
X79370000Y-140810000D01*
X79370000Y-140810000D02*
X79370000Y-147350000D01*
X79370000Y-147350000D02*
X76630000Y-147350000D01*
X76630000Y-147350000D02*
X76630000Y-140810000D01*
X78000000Y-140040000D02*
X78000000Y-140810000D01*
X78000000Y-148120000D02*
X78000000Y-147350000D01*
%TO.C,J1*%
X159000000Y-53500000D02*
X173000000Y-53500000D01*
X173000000Y-53500000D02*
X173000000Y-62500000D01*
X173000000Y-62500000D02*
X159000000Y-62500000D01*
X159000000Y-62500000D02*
X159000000Y-53500000D01*
%TO.C,U1*%
D11*
X146361904Y-39372380D02*
X146361904Y-40181904D01*
X146314285Y-40277142D01*
X146266666Y-40324761D01*
X146171428Y-40372380D01*
X145980952Y-40372380D01*
X145885714Y-40324761D01*
X145838095Y-40277142D01*
X145790476Y-40181904D01*
X145790476Y-39372380D01*
X144790476Y-40372380D02*
X145361904Y-40372380D01*
X145076190Y-40372380D02*
X145076190Y-39372380D01*
X145171428Y-39515238D01*
X145266666Y-39610476D01*
X145361904Y-39658095D01*
%TO.C,D19*%
X60572380Y-100975714D02*
X59572380Y-100975714D01*
X59572380Y-101213809D01*
X59620000Y-101356666D01*
X59715238Y-101451904D01*
X59810476Y-101499523D01*
X60000952Y-101547142D01*
X60143809Y-101547142D01*
X60334285Y-101499523D01*
X60429523Y-101451904D01*
X60524761Y-101356666D01*
X60572380Y-101213809D01*
X60572380Y-100975714D01*
X60572380Y-102499523D02*
X60572380Y-101928095D01*
X60572380Y-102213809D02*
X59572380Y-102213809D01*
X59715238Y-102118571D01*
X59810476Y-102023333D01*
X59858095Y-101928095D01*
X60572380Y-102975714D02*
X60572380Y-103166190D01*
X60524761Y-103261428D01*
X60477142Y-103309047D01*
X60334285Y-103404285D01*
X60143809Y-103451904D01*
X59762857Y-103451904D01*
X59667619Y-103404285D01*
X59620000Y-103356666D01*
X59572380Y-103261428D01*
X59572380Y-103070952D01*
X59620000Y-102975714D01*
X59667619Y-102928095D01*
X59762857Y-102880476D01*
X60000952Y-102880476D01*
X60096190Y-102928095D01*
X60143809Y-102975714D01*
X60191428Y-103070952D01*
X60191428Y-103261428D01*
X60143809Y-103356666D01*
X60096190Y-103404285D01*
X60000952Y-103451904D01*
X60252380Y-105738095D02*
X59252380Y-105738095D01*
X60252380Y-106309523D02*
X59680952Y-105880952D01*
X59252380Y-106309523D02*
X59823809Y-105738095D01*
%TO.C,D18*%
X47024285Y-158572380D02*
X47024285Y-157572380D01*
X46786190Y-157572380D01*
X46643333Y-157620000D01*
X46548095Y-157715238D01*
X46500476Y-157810476D01*
X46452857Y-158000952D01*
X46452857Y-158143809D01*
X46500476Y-158334285D01*
X46548095Y-158429523D01*
X46643333Y-158524761D01*
X46786190Y-158572380D01*
X47024285Y-158572380D01*
X45500476Y-158572380D02*
X46071904Y-158572380D01*
X45786190Y-158572380D02*
X45786190Y-157572380D01*
X45881428Y-157715238D01*
X45976666Y-157810476D01*
X46071904Y-157858095D01*
X44929047Y-158000952D02*
X45024285Y-157953333D01*
X45071904Y-157905714D01*
X45119523Y-157810476D01*
X45119523Y-157762857D01*
X45071904Y-157667619D01*
X45024285Y-157620000D01*
X44929047Y-157572380D01*
X44738571Y-157572380D01*
X44643333Y-157620000D01*
X44595714Y-157667619D01*
X44548095Y-157762857D01*
X44548095Y-157810476D01*
X44595714Y-157905714D01*
X44643333Y-157953333D01*
X44738571Y-158000952D01*
X44929047Y-158000952D01*
X45024285Y-158048571D01*
X45071904Y-158096190D01*
X45119523Y-158191428D01*
X45119523Y-158381904D01*
X45071904Y-158477142D01*
X45024285Y-158524761D01*
X44929047Y-158572380D01*
X44738571Y-158572380D01*
X44643333Y-158524761D01*
X44595714Y-158477142D01*
X44548095Y-158381904D01*
X44548095Y-158191428D01*
X44595714Y-158096190D01*
X44643333Y-158048571D01*
X44738571Y-158000952D01*
X42261904Y-158252380D02*
X42261904Y-157252380D01*
X41690476Y-158252380D02*
X42119047Y-157680952D01*
X41690476Y-157252380D02*
X42261904Y-157823809D01*
%TO.C,D15*%
X160572380Y-100975714D02*
X159572380Y-100975714D01*
X159572380Y-101213809D01*
X159620000Y-101356666D01*
X159715238Y-101451904D01*
X159810476Y-101499523D01*
X160000952Y-101547142D01*
X160143809Y-101547142D01*
X160334285Y-101499523D01*
X160429523Y-101451904D01*
X160524761Y-101356666D01*
X160572380Y-101213809D01*
X160572380Y-100975714D01*
X160572380Y-102499523D02*
X160572380Y-101928095D01*
X160572380Y-102213809D02*
X159572380Y-102213809D01*
X159715238Y-102118571D01*
X159810476Y-102023333D01*
X159858095Y-101928095D01*
X159572380Y-103404285D02*
X159572380Y-102928095D01*
X160048571Y-102880476D01*
X160000952Y-102928095D01*
X159953333Y-103023333D01*
X159953333Y-103261428D01*
X160000952Y-103356666D01*
X160048571Y-103404285D01*
X160143809Y-103451904D01*
X160381904Y-103451904D01*
X160477142Y-103404285D01*
X160524761Y-103356666D01*
X160572380Y-103261428D01*
X160572380Y-103023333D01*
X160524761Y-102928095D01*
X160477142Y-102880476D01*
X160252380Y-105738095D02*
X159252380Y-105738095D01*
X160252380Y-106309523D02*
X159680952Y-105880952D01*
X159252380Y-106309523D02*
X159823809Y-105738095D01*
%TO.C,D14*%
X147024285Y-158572380D02*
X147024285Y-157572380D01*
X146786190Y-157572380D01*
X146643333Y-157620000D01*
X146548095Y-157715238D01*
X146500476Y-157810476D01*
X146452857Y-158000952D01*
X146452857Y-158143809D01*
X146500476Y-158334285D01*
X146548095Y-158429523D01*
X146643333Y-158524761D01*
X146786190Y-158572380D01*
X147024285Y-158572380D01*
X145500476Y-158572380D02*
X146071904Y-158572380D01*
X145786190Y-158572380D02*
X145786190Y-157572380D01*
X145881428Y-157715238D01*
X145976666Y-157810476D01*
X146071904Y-157858095D01*
X144643333Y-157905714D02*
X144643333Y-158572380D01*
X144881428Y-157524761D02*
X145119523Y-158239047D01*
X144500476Y-158239047D01*
X142261904Y-158252380D02*
X142261904Y-157252380D01*
X141690476Y-158252380D02*
X142119047Y-157680952D01*
X141690476Y-157252380D02*
X142261904Y-157823809D01*
%TO.C,D11*%
X135572380Y-100975714D02*
X134572380Y-100975714D01*
X134572380Y-101213809D01*
X134620000Y-101356666D01*
X134715238Y-101451904D01*
X134810476Y-101499523D01*
X135000952Y-101547142D01*
X135143809Y-101547142D01*
X135334285Y-101499523D01*
X135429523Y-101451904D01*
X135524761Y-101356666D01*
X135572380Y-101213809D01*
X135572380Y-100975714D01*
X135572380Y-102499523D02*
X135572380Y-101928095D01*
X135572380Y-102213809D02*
X134572380Y-102213809D01*
X134715238Y-102118571D01*
X134810476Y-102023333D01*
X134858095Y-101928095D01*
X135572380Y-103451904D02*
X135572380Y-102880476D01*
X135572380Y-103166190D02*
X134572380Y-103166190D01*
X134715238Y-103070952D01*
X134810476Y-102975714D01*
X134858095Y-102880476D01*
X135252380Y-105738095D02*
X134252380Y-105738095D01*
X135252380Y-106309523D02*
X134680952Y-105880952D01*
X134252380Y-106309523D02*
X134823809Y-105738095D01*
%TO.C,D10*%
X122024285Y-158572380D02*
X122024285Y-157572380D01*
X121786190Y-157572380D01*
X121643333Y-157620000D01*
X121548095Y-157715238D01*
X121500476Y-157810476D01*
X121452857Y-158000952D01*
X121452857Y-158143809D01*
X121500476Y-158334285D01*
X121548095Y-158429523D01*
X121643333Y-158524761D01*
X121786190Y-158572380D01*
X122024285Y-158572380D01*
X120500476Y-158572380D02*
X121071904Y-158572380D01*
X120786190Y-158572380D02*
X120786190Y-157572380D01*
X120881428Y-157715238D01*
X120976666Y-157810476D01*
X121071904Y-157858095D01*
X119881428Y-157572380D02*
X119786190Y-157572380D01*
X119690952Y-157620000D01*
X119643333Y-157667619D01*
X119595714Y-157762857D01*
X119548095Y-157953333D01*
X119548095Y-158191428D01*
X119595714Y-158381904D01*
X119643333Y-158477142D01*
X119690952Y-158524761D01*
X119786190Y-158572380D01*
X119881428Y-158572380D01*
X119976666Y-158524761D01*
X120024285Y-158477142D01*
X120071904Y-158381904D01*
X120119523Y-158191428D01*
X120119523Y-157953333D01*
X120071904Y-157762857D01*
X120024285Y-157667619D01*
X119976666Y-157620000D01*
X119881428Y-157572380D01*
X117261904Y-158252380D02*
X117261904Y-157252380D01*
X116690476Y-158252380D02*
X117119047Y-157680952D01*
X116690476Y-157252380D02*
X117261904Y-157823809D01*
%TO.C,D7*%
X110572380Y-101451904D02*
X109572380Y-101451904D01*
X109572380Y-101690000D01*
X109620000Y-101832857D01*
X109715238Y-101928095D01*
X109810476Y-101975714D01*
X110000952Y-102023333D01*
X110143809Y-102023333D01*
X110334285Y-101975714D01*
X110429523Y-101928095D01*
X110524761Y-101832857D01*
X110572380Y-101690000D01*
X110572380Y-101451904D01*
X109572380Y-102356666D02*
X109572380Y-103023333D01*
X110572380Y-102594761D01*
X110252380Y-105738095D02*
X109252380Y-105738095D01*
X110252380Y-106309523D02*
X109680952Y-105880952D01*
X109252380Y-106309523D02*
X109823809Y-105738095D01*
%TO.C,D6*%
X96548095Y-158572380D02*
X96548095Y-157572380D01*
X96310000Y-157572380D01*
X96167142Y-157620000D01*
X96071904Y-157715238D01*
X96024285Y-157810476D01*
X95976666Y-158000952D01*
X95976666Y-158143809D01*
X96024285Y-158334285D01*
X96071904Y-158429523D01*
X96167142Y-158524761D01*
X96310000Y-158572380D01*
X96548095Y-158572380D01*
X95119523Y-157572380D02*
X95310000Y-157572380D01*
X95405238Y-157620000D01*
X95452857Y-157667619D01*
X95548095Y-157810476D01*
X95595714Y-158000952D01*
X95595714Y-158381904D01*
X95548095Y-158477142D01*
X95500476Y-158524761D01*
X95405238Y-158572380D01*
X95214761Y-158572380D01*
X95119523Y-158524761D01*
X95071904Y-158477142D01*
X95024285Y-158381904D01*
X95024285Y-158143809D01*
X95071904Y-158048571D01*
X95119523Y-158000952D01*
X95214761Y-157953333D01*
X95405238Y-157953333D01*
X95500476Y-158000952D01*
X95548095Y-158048571D01*
X95595714Y-158143809D01*
X92261904Y-158252380D02*
X92261904Y-157252380D01*
X91690476Y-158252380D02*
X92119047Y-157680952D01*
X91690476Y-157252380D02*
X92261904Y-157823809D01*
%TO.C,D3*%
X84822380Y-101701904D02*
X83822380Y-101701904D01*
X83822380Y-101940000D01*
X83870000Y-102082857D01*
X83965238Y-102178095D01*
X84060476Y-102225714D01*
X84250952Y-102273333D01*
X84393809Y-102273333D01*
X84584285Y-102225714D01*
X84679523Y-102178095D01*
X84774761Y-102082857D01*
X84822380Y-101940000D01*
X84822380Y-101701904D01*
X83822380Y-102606666D02*
X83822380Y-103225714D01*
X84203333Y-102892380D01*
X84203333Y-103035238D01*
X84250952Y-103130476D01*
X84298571Y-103178095D01*
X84393809Y-103225714D01*
X84631904Y-103225714D01*
X84727142Y-103178095D01*
X84774761Y-103130476D01*
X84822380Y-103035238D01*
X84822380Y-102749523D01*
X84774761Y-102654285D01*
X84727142Y-102606666D01*
X84502380Y-105988095D02*
X83502380Y-105988095D01*
X84502380Y-106559523D02*
X83930952Y-106130952D01*
X83502380Y-106559523D02*
X84073809Y-105988095D01*
%TO.C,D2*%
X71548095Y-158572380D02*
X71548095Y-157572380D01*
X71310000Y-157572380D01*
X71167142Y-157620000D01*
X71071904Y-157715238D01*
X71024285Y-157810476D01*
X70976666Y-158000952D01*
X70976666Y-158143809D01*
X71024285Y-158334285D01*
X71071904Y-158429523D01*
X71167142Y-158524761D01*
X71310000Y-158572380D01*
X71548095Y-158572380D01*
X70595714Y-157667619D02*
X70548095Y-157620000D01*
X70452857Y-157572380D01*
X70214761Y-157572380D01*
X70119523Y-157620000D01*
X70071904Y-157667619D01*
X70024285Y-157762857D01*
X70024285Y-157858095D01*
X70071904Y-158000952D01*
X70643333Y-158572380D01*
X70024285Y-158572380D01*
X67261904Y-158252380D02*
X67261904Y-157252380D01*
X66690476Y-158252380D02*
X67119047Y-157680952D01*
X66690476Y-157252380D02*
X67261904Y-157823809D01*
%TO.C,Q5*%
X52555238Y-109277619D02*
X52650476Y-109230000D01*
X52745714Y-109134761D01*
X52888571Y-108991904D01*
X52983809Y-108944285D01*
X53079047Y-108944285D01*
X53031428Y-109182380D02*
X53126666Y-109134761D01*
X53221904Y-109039523D01*
X53269523Y-108849047D01*
X53269523Y-108515714D01*
X53221904Y-108325238D01*
X53126666Y-108230000D01*
X53031428Y-108182380D01*
X52840952Y-108182380D01*
X52745714Y-108230000D01*
X52650476Y-108325238D01*
X52602857Y-108515714D01*
X52602857Y-108849047D01*
X52650476Y-109039523D01*
X52745714Y-109134761D01*
X52840952Y-109182380D01*
X53031428Y-109182380D01*
X51698095Y-108182380D02*
X52174285Y-108182380D01*
X52221904Y-108658571D01*
X52174285Y-108610952D01*
X52079047Y-108563333D01*
X51840952Y-108563333D01*
X51745714Y-108610952D01*
X51698095Y-108658571D01*
X51650476Y-108753809D01*
X51650476Y-108991904D01*
X51698095Y-109087142D01*
X51745714Y-109134761D01*
X51840952Y-109182380D01*
X52079047Y-109182380D01*
X52174285Y-109134761D01*
X52221904Y-109087142D01*
%TO.C,Q4*%
X153055238Y-109277619D02*
X153150476Y-109230000D01*
X153245714Y-109134761D01*
X153388571Y-108991904D01*
X153483809Y-108944285D01*
X153579047Y-108944285D01*
X153531428Y-109182380D02*
X153626666Y-109134761D01*
X153721904Y-109039523D01*
X153769523Y-108849047D01*
X153769523Y-108515714D01*
X153721904Y-108325238D01*
X153626666Y-108230000D01*
X153531428Y-108182380D01*
X153340952Y-108182380D01*
X153245714Y-108230000D01*
X153150476Y-108325238D01*
X153102857Y-108515714D01*
X153102857Y-108849047D01*
X153150476Y-109039523D01*
X153245714Y-109134761D01*
X153340952Y-109182380D01*
X153531428Y-109182380D01*
X152245714Y-108515714D02*
X152245714Y-109182380D01*
X152483809Y-108134761D02*
X152721904Y-108849047D01*
X152102857Y-108849047D01*
%TO.C,Q3*%
X127555238Y-109277619D02*
X127650476Y-109230000D01*
X127745714Y-109134761D01*
X127888571Y-108991904D01*
X127983809Y-108944285D01*
X128079047Y-108944285D01*
X128031428Y-109182380D02*
X128126666Y-109134761D01*
X128221904Y-109039523D01*
X128269523Y-108849047D01*
X128269523Y-108515714D01*
X128221904Y-108325238D01*
X128126666Y-108230000D01*
X128031428Y-108182380D01*
X127840952Y-108182380D01*
X127745714Y-108230000D01*
X127650476Y-108325238D01*
X127602857Y-108515714D01*
X127602857Y-108849047D01*
X127650476Y-109039523D01*
X127745714Y-109134761D01*
X127840952Y-109182380D01*
X128031428Y-109182380D01*
X127269523Y-108182380D02*
X126650476Y-108182380D01*
X126983809Y-108563333D01*
X126840952Y-108563333D01*
X126745714Y-108610952D01*
X126698095Y-108658571D01*
X126650476Y-108753809D01*
X126650476Y-108991904D01*
X126698095Y-109087142D01*
X126745714Y-109134761D01*
X126840952Y-109182380D01*
X127126666Y-109182380D01*
X127221904Y-109134761D01*
X127269523Y-109087142D01*
%TO.C,Q2*%
X102555238Y-109277619D02*
X102650476Y-109230000D01*
X102745714Y-109134761D01*
X102888571Y-108991904D01*
X102983809Y-108944285D01*
X103079047Y-108944285D01*
X103031428Y-109182380D02*
X103126666Y-109134761D01*
X103221904Y-109039523D01*
X103269523Y-108849047D01*
X103269523Y-108515714D01*
X103221904Y-108325238D01*
X103126666Y-108230000D01*
X103031428Y-108182380D01*
X102840952Y-108182380D01*
X102745714Y-108230000D01*
X102650476Y-108325238D01*
X102602857Y-108515714D01*
X102602857Y-108849047D01*
X102650476Y-109039523D01*
X102745714Y-109134761D01*
X102840952Y-109182380D01*
X103031428Y-109182380D01*
X102221904Y-108277619D02*
X102174285Y-108230000D01*
X102079047Y-108182380D01*
X101840952Y-108182380D01*
X101745714Y-108230000D01*
X101698095Y-108277619D01*
X101650476Y-108372857D01*
X101650476Y-108468095D01*
X101698095Y-108610952D01*
X102269523Y-109182380D01*
X101650476Y-109182380D01*
%TO.C,Q1*%
X77555238Y-109277619D02*
X77650476Y-109230000D01*
X77745714Y-109134761D01*
X77888571Y-108991904D01*
X77983809Y-108944285D01*
X78079047Y-108944285D01*
X78031428Y-109182380D02*
X78126666Y-109134761D01*
X78221904Y-109039523D01*
X78269523Y-108849047D01*
X78269523Y-108515714D01*
X78221904Y-108325238D01*
X78126666Y-108230000D01*
X78031428Y-108182380D01*
X77840952Y-108182380D01*
X77745714Y-108230000D01*
X77650476Y-108325238D01*
X77602857Y-108515714D01*
X77602857Y-108849047D01*
X77650476Y-109039523D01*
X77745714Y-109134761D01*
X77840952Y-109182380D01*
X78031428Y-109182380D01*
X76650476Y-109182380D02*
X77221904Y-109182380D01*
X76936190Y-109182380D02*
X76936190Y-108182380D01*
X77031428Y-108325238D01*
X77126666Y-108420476D01*
X77221904Y-108468095D01*
%TO.C,K1*%
X38132380Y-70811904D02*
X37132380Y-70811904D01*
X38132380Y-71383333D02*
X37560952Y-70954761D01*
X37132380Y-71383333D02*
X37703809Y-70811904D01*
X38132380Y-72335714D02*
X38132380Y-71764285D01*
X38132380Y-72050000D02*
X37132380Y-72050000D01*
X37275238Y-71954761D01*
X37370476Y-71859523D01*
X37418095Y-71764285D01*
%TO.C,R10*%
X51082380Y-100437142D02*
X50606190Y-100103809D01*
X51082380Y-99865714D02*
X50082380Y-99865714D01*
X50082380Y-100246666D01*
X50130000Y-100341904D01*
X50177619Y-100389523D01*
X50272857Y-100437142D01*
X50415714Y-100437142D01*
X50510952Y-100389523D01*
X50558571Y-100341904D01*
X50606190Y-100246666D01*
X50606190Y-99865714D01*
X51082380Y-101389523D02*
X51082380Y-100818095D01*
X51082380Y-101103809D02*
X50082380Y-101103809D01*
X50225238Y-101008571D01*
X50320476Y-100913333D01*
X50368095Y-100818095D01*
X50082380Y-102008571D02*
X50082380Y-102103809D01*
X50130000Y-102199047D01*
X50177619Y-102246666D01*
X50272857Y-102294285D01*
X50463333Y-102341904D01*
X50701428Y-102341904D01*
X50891904Y-102294285D01*
X50987142Y-102246666D01*
X51034761Y-102199047D01*
X51082380Y-102103809D01*
X51082380Y-102008571D01*
X51034761Y-101913333D01*
X50987142Y-101865714D01*
X50891904Y-101818095D01*
X50701428Y-101770476D01*
X50463333Y-101770476D01*
X50272857Y-101818095D01*
X50177619Y-101865714D01*
X50130000Y-101913333D01*
X50082380Y-102008571D01*
%TO.C,R9*%
X51082380Y-143913333D02*
X50606190Y-143580000D01*
X51082380Y-143341904D02*
X50082380Y-143341904D01*
X50082380Y-143722857D01*
X50130000Y-143818095D01*
X50177619Y-143865714D01*
X50272857Y-143913333D01*
X50415714Y-143913333D01*
X50510952Y-143865714D01*
X50558571Y-143818095D01*
X50606190Y-143722857D01*
X50606190Y-143341904D01*
X51082380Y-144389523D02*
X51082380Y-144580000D01*
X51034761Y-144675238D01*
X50987142Y-144722857D01*
X50844285Y-144818095D01*
X50653809Y-144865714D01*
X50272857Y-144865714D01*
X50177619Y-144818095D01*
X50130000Y-144770476D01*
X50082380Y-144675238D01*
X50082380Y-144484761D01*
X50130000Y-144389523D01*
X50177619Y-144341904D01*
X50272857Y-144294285D01*
X50510952Y-144294285D01*
X50606190Y-144341904D01*
X50653809Y-144389523D01*
X50701428Y-144484761D01*
X50701428Y-144675238D01*
X50653809Y-144770476D01*
X50606190Y-144818095D01*
X50510952Y-144865714D01*
%TO.C,R8*%
X151082380Y-100913333D02*
X150606190Y-100580000D01*
X151082380Y-100341904D02*
X150082380Y-100341904D01*
X150082380Y-100722857D01*
X150130000Y-100818095D01*
X150177619Y-100865714D01*
X150272857Y-100913333D01*
X150415714Y-100913333D01*
X150510952Y-100865714D01*
X150558571Y-100818095D01*
X150606190Y-100722857D01*
X150606190Y-100341904D01*
X150510952Y-101484761D02*
X150463333Y-101389523D01*
X150415714Y-101341904D01*
X150320476Y-101294285D01*
X150272857Y-101294285D01*
X150177619Y-101341904D01*
X150130000Y-101389523D01*
X150082380Y-101484761D01*
X150082380Y-101675238D01*
X150130000Y-101770476D01*
X150177619Y-101818095D01*
X150272857Y-101865714D01*
X150320476Y-101865714D01*
X150415714Y-101818095D01*
X150463333Y-101770476D01*
X150510952Y-101675238D01*
X150510952Y-101484761D01*
X150558571Y-101389523D01*
X150606190Y-101341904D01*
X150701428Y-101294285D01*
X150891904Y-101294285D01*
X150987142Y-101341904D01*
X151034761Y-101389523D01*
X151082380Y-101484761D01*
X151082380Y-101675238D01*
X151034761Y-101770476D01*
X150987142Y-101818095D01*
X150891904Y-101865714D01*
X150701428Y-101865714D01*
X150606190Y-101818095D01*
X150558571Y-101770476D01*
X150510952Y-101675238D01*
%TO.C,R7*%
X151082380Y-143913333D02*
X150606190Y-143580000D01*
X151082380Y-143341904D02*
X150082380Y-143341904D01*
X150082380Y-143722857D01*
X150130000Y-143818095D01*
X150177619Y-143865714D01*
X150272857Y-143913333D01*
X150415714Y-143913333D01*
X150510952Y-143865714D01*
X150558571Y-143818095D01*
X150606190Y-143722857D01*
X150606190Y-143341904D01*
X150082380Y-144246666D02*
X150082380Y-144913333D01*
X151082380Y-144484761D01*
%TO.C,R6*%
X126082380Y-100913333D02*
X125606190Y-100580000D01*
X126082380Y-100341904D02*
X125082380Y-100341904D01*
X125082380Y-100722857D01*
X125130000Y-100818095D01*
X125177619Y-100865714D01*
X125272857Y-100913333D01*
X125415714Y-100913333D01*
X125510952Y-100865714D01*
X125558571Y-100818095D01*
X125606190Y-100722857D01*
X125606190Y-100341904D01*
X125082380Y-101770476D02*
X125082380Y-101580000D01*
X125130000Y-101484761D01*
X125177619Y-101437142D01*
X125320476Y-101341904D01*
X125510952Y-101294285D01*
X125891904Y-101294285D01*
X125987142Y-101341904D01*
X126034761Y-101389523D01*
X126082380Y-101484761D01*
X126082380Y-101675238D01*
X126034761Y-101770476D01*
X125987142Y-101818095D01*
X125891904Y-101865714D01*
X125653809Y-101865714D01*
X125558571Y-101818095D01*
X125510952Y-101770476D01*
X125463333Y-101675238D01*
X125463333Y-101484761D01*
X125510952Y-101389523D01*
X125558571Y-101341904D01*
X125653809Y-101294285D01*
%TO.C,R5*%
X126082380Y-143913333D02*
X125606190Y-143580000D01*
X126082380Y-143341904D02*
X125082380Y-143341904D01*
X125082380Y-143722857D01*
X125130000Y-143818095D01*
X125177619Y-143865714D01*
X125272857Y-143913333D01*
X125415714Y-143913333D01*
X125510952Y-143865714D01*
X125558571Y-143818095D01*
X125606190Y-143722857D01*
X125606190Y-143341904D01*
X125082380Y-144818095D02*
X125082380Y-144341904D01*
X125558571Y-144294285D01*
X125510952Y-144341904D01*
X125463333Y-144437142D01*
X125463333Y-144675238D01*
X125510952Y-144770476D01*
X125558571Y-144818095D01*
X125653809Y-144865714D01*
X125891904Y-144865714D01*
X125987142Y-144818095D01*
X126034761Y-144770476D01*
X126082380Y-144675238D01*
X126082380Y-144437142D01*
X126034761Y-144341904D01*
X125987142Y-144294285D01*
%TO.C,R4*%
X101082380Y-100913333D02*
X100606190Y-100580000D01*
X101082380Y-100341904D02*
X100082380Y-100341904D01*
X100082380Y-100722857D01*
X100130000Y-100818095D01*
X100177619Y-100865714D01*
X100272857Y-100913333D01*
X100415714Y-100913333D01*
X100510952Y-100865714D01*
X100558571Y-100818095D01*
X100606190Y-100722857D01*
X100606190Y-100341904D01*
X100415714Y-101770476D02*
X101082380Y-101770476D01*
X100034761Y-101532380D02*
X100749047Y-101294285D01*
X100749047Y-101913333D01*
%TO.C,R3*%
X101082380Y-143913333D02*
X100606190Y-143580000D01*
X101082380Y-143341904D02*
X100082380Y-143341904D01*
X100082380Y-143722857D01*
X100130000Y-143818095D01*
X100177619Y-143865714D01*
X100272857Y-143913333D01*
X100415714Y-143913333D01*
X100510952Y-143865714D01*
X100558571Y-143818095D01*
X100606190Y-143722857D01*
X100606190Y-143341904D01*
X100082380Y-144246666D02*
X100082380Y-144865714D01*
X100463333Y-144532380D01*
X100463333Y-144675238D01*
X100510952Y-144770476D01*
X100558571Y-144818095D01*
X100653809Y-144865714D01*
X100891904Y-144865714D01*
X100987142Y-144818095D01*
X101034761Y-144770476D01*
X101082380Y-144675238D01*
X101082380Y-144389523D01*
X101034761Y-144294285D01*
X100987142Y-144246666D01*
%TO.C,R2*%
X76082380Y-100913333D02*
X75606190Y-100580000D01*
X76082380Y-100341904D02*
X75082380Y-100341904D01*
X75082380Y-100722857D01*
X75130000Y-100818095D01*
X75177619Y-100865714D01*
X75272857Y-100913333D01*
X75415714Y-100913333D01*
X75510952Y-100865714D01*
X75558571Y-100818095D01*
X75606190Y-100722857D01*
X75606190Y-100341904D01*
X75177619Y-101294285D02*
X75130000Y-101341904D01*
X75082380Y-101437142D01*
X75082380Y-101675238D01*
X75130000Y-101770476D01*
X75177619Y-101818095D01*
X75272857Y-101865714D01*
X75368095Y-101865714D01*
X75510952Y-101818095D01*
X76082380Y-101246666D01*
X76082380Y-101865714D01*
%TO.C,R1*%
X76082380Y-143913333D02*
X75606190Y-143580000D01*
X76082380Y-143341904D02*
X75082380Y-143341904D01*
X75082380Y-143722857D01*
X75130000Y-143818095D01*
X75177619Y-143865714D01*
X75272857Y-143913333D01*
X75415714Y-143913333D01*
X75510952Y-143865714D01*
X75558571Y-143818095D01*
X75606190Y-143722857D01*
X75606190Y-143341904D01*
X76082380Y-144865714D02*
X76082380Y-144294285D01*
X76082380Y-144580000D02*
X75082380Y-144580000D01*
X75225238Y-144484761D01*
X75320476Y-144389523D01*
X75368095Y-144294285D01*
%TO.C,J1*%
X170633333Y-55732380D02*
X170633333Y-56446666D01*
X170680952Y-56589523D01*
X170776190Y-56684761D01*
X170919047Y-56732380D01*
X171014285Y-56732380D01*
X169633333Y-56732380D02*
X170204761Y-56732380D01*
X169919047Y-56732380D02*
X169919047Y-55732380D01*
X170014285Y-55875238D01*
X170109523Y-55970476D01*
X170204761Y-56018095D01*
%TD*%
M02*
