%TF.GenerationSoftware,KiCad,Pcbnew,(5.1.10)-1*%
%TF.CreationDate,2022-08-30T02:24:47-07:00*%
%TF.ProjectId,Garden_Board,47617264-656e-45f4-926f-6172642e6b69,rev?*%
%TF.SameCoordinates,Original*%
%TF.FileFunction,Soldermask,Top*%
%TF.FilePolarity,Negative*%
%FSLAX46Y46*%
G04 Gerber Fmt 4.6, Leading zero omitted, Abs format (unit mm)*
G04 Created by KiCad (PCBNEW (5.1.10)-1) date 2022-08-30 02:24:47*
%MOMM*%
%LPD*%
G01*
G04 APERTURE LIST*
%ADD10C,3.200000*%
%ADD11C,2.600000*%
%ADD12O,2.400000X2.400000*%
%ADD13R,2.400000X2.400000*%
%ADD14O,1.275000X1.800000*%
%ADD15R,1.275000X1.800000*%
%ADD16O,1.600000X1.600000*%
%ADD17R,1.600000X1.600000*%
%ADD18C,2.000000*%
%ADD19R,2.000000X2.000000*%
%ADD20C,1.600000*%
%ADD21O,1.905000X2.000000*%
%ADD22R,1.905000X2.000000*%
%ADD23O,1.700000X1.700000*%
%ADD24R,1.700000X1.700000*%
%ADD25O,6.300000X3.000000*%
%ADD26C,3.000000*%
%ADD27R,3.000000X3.000000*%
%ADD28C,1.800000*%
%ADD29R,1.800000X1.800000*%
G04 APERTURE END LIST*
D10*
%TO.C,H4*%
X26500000Y-164500000D03*
%TD*%
%TO.C,H3*%
X169500000Y-164500000D03*
%TD*%
%TO.C,H2*%
X169500000Y-41500000D03*
%TD*%
%TO.C,H1*%
X26500000Y-41500000D03*
%TD*%
D11*
%TO.C,L1*%
X154000000Y-69000000D03*
X159000000Y-69000000D03*
%TD*%
D12*
%TO.C,D21*%
X166700000Y-51000000D03*
D13*
X154000000Y-51000000D03*
%TD*%
D14*
%TO.C,U1*%
X142200000Y-60500000D03*
X143900000Y-60500000D03*
X145600000Y-60500000D03*
X147300000Y-60500000D03*
D15*
X149000000Y-60500000D03*
%TD*%
D16*
%TO.C,D19*%
X58000000Y-98380000D03*
D17*
X58000000Y-106000000D03*
%TD*%
D16*
%TO.C,D18*%
X49620000Y-156000000D03*
D17*
X42000000Y-156000000D03*
%TD*%
D16*
%TO.C,D15*%
X158000000Y-98380000D03*
D17*
X158000000Y-106000000D03*
%TD*%
D16*
%TO.C,D14*%
X149620000Y-156000000D03*
D17*
X142000000Y-156000000D03*
%TD*%
D16*
%TO.C,D11*%
X133000000Y-98380000D03*
D17*
X133000000Y-106000000D03*
%TD*%
D16*
%TO.C,D10*%
X124620000Y-156000000D03*
D17*
X117000000Y-156000000D03*
%TD*%
D16*
%TO.C,D7*%
X108000000Y-98380000D03*
D17*
X108000000Y-106000000D03*
%TD*%
D16*
%TO.C,D6*%
X99620000Y-156000000D03*
D17*
X92000000Y-156000000D03*
%TD*%
D16*
%TO.C,D3*%
X82250000Y-98630000D03*
D17*
X82250000Y-106250000D03*
%TD*%
D16*
%TO.C,D2*%
X74620000Y-156000000D03*
D17*
X67000000Y-156000000D03*
%TD*%
D18*
%TO.C,C2*%
X134500000Y-45000000D03*
D19*
X134500000Y-50000000D03*
%TD*%
D20*
%TO.C,C1*%
X167000000Y-70000000D03*
D17*
X165000000Y-70000000D03*
%TD*%
D21*
%TO.C,Q5*%
X49920000Y-113000000D03*
X52460000Y-113000000D03*
D22*
X55000000Y-113000000D03*
%TD*%
D21*
%TO.C,Q4*%
X150420000Y-113000000D03*
X152960000Y-113000000D03*
D22*
X155500000Y-113000000D03*
%TD*%
D21*
%TO.C,Q3*%
X124920000Y-113000000D03*
X127460000Y-113000000D03*
D22*
X130000000Y-113000000D03*
%TD*%
D21*
%TO.C,Q2*%
X99920000Y-113000000D03*
X102460000Y-113000000D03*
D22*
X105000000Y-113000000D03*
%TD*%
D21*
%TO.C,Q1*%
X74920000Y-113000000D03*
X77460000Y-113000000D03*
D22*
X80000000Y-113000000D03*
%TD*%
D23*
%TO.C,J9*%
X49000000Y-44880000D03*
X49000000Y-47420000D03*
X49000000Y-49960000D03*
D24*
X49000000Y-52500000D03*
%TD*%
D23*
%TO.C,J6*%
X93420000Y-70500000D03*
X95960000Y-70500000D03*
D24*
X98500000Y-70500000D03*
%TD*%
D23*
%TO.C,J5*%
X93420000Y-75500000D03*
X95960000Y-75500000D03*
D24*
X98500000Y-75500000D03*
%TD*%
D25*
%TO.C,SW4*%
X147000000Y-133000000D03*
X147000000Y-126000000D03*
X147000000Y-119000000D03*
%TD*%
%TO.C,SW3*%
X122000000Y-133000000D03*
X122000000Y-126000000D03*
X122000000Y-119000000D03*
%TD*%
%TO.C,SW2*%
X97000000Y-133000000D03*
X97000000Y-126000000D03*
X97000000Y-119000000D03*
%TD*%
%TO.C,SW0*%
X47000000Y-133000000D03*
X47000000Y-126000000D03*
X47000000Y-119000000D03*
%TD*%
%TO.C,SW1*%
X72000000Y-133000000D03*
X72000000Y-126000000D03*
X72000000Y-119000000D03*
%TD*%
D26*
%TO.C,K1*%
X43480000Y-84050000D03*
X35980000Y-80550000D03*
X43480000Y-60550000D03*
D27*
X35980000Y-60550000D03*
%TD*%
D16*
%TO.C,U2*%
X80840000Y-62550000D03*
X78300000Y-62550000D03*
X70680000Y-62550000D03*
X68140000Y-62550000D03*
X59250000Y-60010000D03*
X61790000Y-60010000D03*
X64330000Y-60010000D03*
X87190000Y-75250000D03*
X66870000Y-60010000D03*
X84650000Y-75250000D03*
X69410000Y-60010000D03*
X82110000Y-75250000D03*
X71950000Y-60010000D03*
X79570000Y-75250000D03*
X74490000Y-60010000D03*
X77030000Y-75250000D03*
X77030000Y-60010000D03*
X74490000Y-75250000D03*
X79570000Y-60010000D03*
X71950000Y-75250000D03*
X82110000Y-60010000D03*
X69410000Y-75250000D03*
X84650000Y-60010000D03*
X66870000Y-75250000D03*
X87190000Y-60010000D03*
X64330000Y-75250000D03*
X61790000Y-75250000D03*
D17*
X59250000Y-75250000D03*
%TD*%
D16*
%TO.C,R10*%
X53000000Y-106160000D03*
D20*
X53000000Y-96000000D03*
%TD*%
D16*
%TO.C,R9*%
X53000000Y-149160000D03*
D20*
X53000000Y-139000000D03*
%TD*%
D16*
%TO.C,R8*%
X153000000Y-106160000D03*
D20*
X153000000Y-96000000D03*
%TD*%
D16*
%TO.C,R7*%
X153000000Y-149160000D03*
D20*
X153000000Y-139000000D03*
%TD*%
D16*
%TO.C,R6*%
X128000000Y-106160000D03*
D20*
X128000000Y-96000000D03*
%TD*%
D16*
%TO.C,R5*%
X128000000Y-149160000D03*
D20*
X128000000Y-139000000D03*
%TD*%
D16*
%TO.C,R4*%
X103000000Y-106160000D03*
D20*
X103000000Y-96000000D03*
%TD*%
D16*
%TO.C,R3*%
X103000000Y-149160000D03*
D20*
X103000000Y-139000000D03*
%TD*%
D16*
%TO.C,R2*%
X78000000Y-106160000D03*
D20*
X78000000Y-96000000D03*
%TD*%
D16*
%TO.C,R1*%
X78000000Y-149160000D03*
D20*
X78000000Y-139000000D03*
%TD*%
D23*
%TO.C,J18*%
X39790000Y-92250000D03*
D24*
X37250000Y-92250000D03*
%TD*%
D26*
%TO.C,J17*%
X50080000Y-162000000D03*
D27*
X45000000Y-162000000D03*
%TD*%
D23*
%TO.C,J16*%
X108500000Y-44920000D03*
X108500000Y-47460000D03*
D24*
X108500000Y-50000000D03*
%TD*%
D23*
%TO.C,J15*%
X98500000Y-44920000D03*
X98500000Y-47460000D03*
D24*
X98500000Y-50000000D03*
%TD*%
D23*
%TO.C,J14*%
X88500000Y-44920000D03*
X88500000Y-47460000D03*
D24*
X88500000Y-50000000D03*
%TD*%
D23*
%TO.C,J13*%
X78500000Y-44920000D03*
X78500000Y-47460000D03*
D24*
X78500000Y-50000000D03*
%TD*%
D23*
%TO.C,J12*%
X68500000Y-44920000D03*
X68500000Y-47460000D03*
D24*
X68500000Y-50000000D03*
%TD*%
D23*
%TO.C,J11*%
X58500000Y-44920000D03*
X58500000Y-47460000D03*
D24*
X58500000Y-50000000D03*
%TD*%
D26*
%TO.C,J8*%
X150080000Y-162000000D03*
D27*
X145000000Y-162000000D03*
%TD*%
D26*
%TO.C,J7*%
X125080000Y-162000000D03*
D27*
X120000000Y-162000000D03*
%TD*%
D26*
%TO.C,J4*%
X100080000Y-162000000D03*
D27*
X95000000Y-162000000D03*
%TD*%
D23*
%TO.C,J3*%
X111210000Y-71870000D03*
X113750000Y-71870000D03*
X111210000Y-69330000D03*
X113750000Y-69330000D03*
X111210000Y-66790000D03*
X113750000Y-66790000D03*
X111210000Y-64250000D03*
D24*
X113750000Y-64250000D03*
%TD*%
D26*
%TO.C,J2*%
X75080000Y-162000000D03*
D27*
X70000000Y-162000000D03*
%TD*%
%TO.C,J1*%
G36*
G01*
X161000000Y-56250000D02*
X161000000Y-59750000D01*
G75*
G02*
X160500000Y-60250000I-500000J0D01*
G01*
X159500000Y-60250000D01*
G75*
G02*
X159000000Y-59750000I0J500000D01*
G01*
X159000000Y-56250000D01*
G75*
G02*
X159500000Y-55750000I500000J0D01*
G01*
X160500000Y-55750000D01*
G75*
G02*
X161000000Y-56250000I0J-500000D01*
G01*
G37*
G36*
G01*
X167000000Y-56500000D02*
X167000000Y-59500000D01*
G75*
G02*
X166500000Y-60000000I-500000J0D01*
G01*
X165500000Y-60000000D01*
G75*
G02*
X165000000Y-59500000I0J500000D01*
G01*
X165000000Y-56500000D01*
G75*
G02*
X165500000Y-56000000I500000J0D01*
G01*
X166500000Y-56000000D01*
G75*
G02*
X167000000Y-56500000I0J-500000D01*
G01*
G37*
%TD*%
D28*
%TO.C,D20*%
X48540000Y-106000000D03*
D29*
X46000000Y-106000000D03*
%TD*%
D28*
%TO.C,D17*%
X48540000Y-149000000D03*
D29*
X46000000Y-149000000D03*
%TD*%
D28*
%TO.C,D16*%
X148540000Y-106000000D03*
D29*
X146000000Y-106000000D03*
%TD*%
D28*
%TO.C,D13*%
X148540000Y-149000000D03*
D29*
X146000000Y-149000000D03*
%TD*%
D28*
%TO.C,D12*%
X123540000Y-106000000D03*
D29*
X121000000Y-106000000D03*
%TD*%
D28*
%TO.C,D9*%
X123540000Y-149000000D03*
D29*
X121000000Y-149000000D03*
%TD*%
D28*
%TO.C,D8*%
X98540000Y-106000000D03*
D29*
X96000000Y-106000000D03*
%TD*%
D28*
%TO.C,D5*%
X98540000Y-149000000D03*
D29*
X96000000Y-149000000D03*
%TD*%
D28*
%TO.C,D4*%
X73540000Y-106000000D03*
D29*
X71000000Y-106000000D03*
%TD*%
D28*
%TO.C,D1*%
X73540000Y-149000000D03*
D29*
X71000000Y-149000000D03*
%TD*%
M02*
