M48
; DRILL file {KiCad (5.1.10)-1} date 07/16/22 16:26:36
; FORMAT={-:-/ absolute / inch / decimal}
; #@! TF.CreationDate,2022-07-16T16:26:36-07:00
; #@! TF.GenerationSoftware,Kicad,Pcbnew,(5.1.10)-1
; #@! TF.FileFunction,Plated,1,2,PTH
FMAT,2
INCH
T1C0.0157
T2C0.0295
T3C0.0315
T4C0.0354
T5C0.0394
T6C0.0433
T7C0.0472
T8C0.0591
T9C0.0598
%
G90
G05
T1
X1.8976Y-2.2244
X2.1732Y-2.1732
X2.4843Y-2.0669
X2.8307Y-2.122
X2.9331Y-2.1732
X3.0354Y-2.2283
X4.2559Y-2.437
T2
X2.0866Y-4.3701
X2.0866Y-4.4201
X2.0866Y-4.4701
X3.0709Y-4.3701
X3.0709Y-4.4201
X3.0709Y-4.4701
X4.0551Y-4.3701
X4.0551Y-4.4201
X4.0551Y-4.4701
X5.0394Y-4.3701
X5.0394Y-4.4201
X5.0394Y-4.4701
X6.0236Y-4.3701
X6.0236Y-4.4201
X6.0236Y-4.4701
T3
X2.0866Y-3.7795
X2.0866Y-4.1795
X2.0866Y-5.4724
X2.0866Y-5.8724
X2.3327Y-2.3626
X2.3327Y-2.9626
X2.4327Y-2.3626
X2.4327Y-2.9626
X2.5327Y-2.3626
X2.5327Y-2.9626
X2.6327Y-2.3626
X2.6327Y-2.9626
X2.6827Y-2.4626
X2.7327Y-2.3626
X2.7327Y-2.9626
X2.7827Y-2.4626
X2.8327Y-2.3626
X2.8327Y-2.9626
X2.9327Y-2.3626
X2.9327Y-2.9626
X3.0327Y-2.3626
X3.0327Y-2.9626
X3.0709Y-3.7795
X3.0709Y-4.1795
X3.0709Y-5.4724
X3.0709Y-5.8724
X3.0827Y-2.4626
X3.1327Y-2.3626
X3.1327Y-2.9626
X3.1827Y-2.4626
X3.2327Y-2.3626
X3.2327Y-2.9626
X3.3327Y-2.3626
X3.3327Y-2.9626
X3.4327Y-2.3626
X3.4327Y-2.9626
X4.0551Y-3.7795
X4.0551Y-4.1795
X4.0551Y-5.4724
X4.0551Y-5.8724
X5.0394Y-3.7795
X5.0394Y-4.1795
X5.0394Y-5.4724
X5.0394Y-5.8724
X6.0236Y-3.7795
X6.0236Y-4.1795
X6.0236Y-5.4724
X6.0236Y-5.8724
T4
X1.811Y-4.1732
X1.811Y-5.8661
X1.911Y-4.1732
X1.911Y-5.8661
X2.7953Y-4.1732
X2.7953Y-5.8661
X2.8953Y-4.1732
X2.8953Y-5.8661
X3.7795Y-4.1732
X3.7795Y-5.8661
X3.8795Y-4.1732
X3.8795Y-5.8661
X4.7638Y-4.1732
X4.7638Y-5.8661
X4.8638Y-4.1732
X4.8638Y-5.8661
X5.748Y-4.1732
X5.748Y-5.8661
X5.848Y-4.1732
X5.848Y-5.8661
T5
X1.4665Y-3.6319
X1.5157Y-1.7685
X1.5157Y-1.8685
X1.5157Y-1.9685
X1.5665Y-3.6319
X1.9094Y-1.7685
X1.9094Y-1.8685
X1.9094Y-1.9685
X2.3031Y-1.7685
X2.3031Y-1.8685
X2.3031Y-1.9685
X2.6969Y-1.7685
X2.6969Y-1.8685
X2.6969Y-1.9685
X3.0906Y-1.7685
X3.0906Y-1.8685
X3.0906Y-1.9685
X3.4843Y-1.7685
X3.4843Y-1.8685
X3.4843Y-1.9685
X3.878Y-1.7685
X3.878Y-1.8685
X3.878Y-1.9685
X3.8976Y-2.5886
X3.8976Y-2.6886
X3.8976Y-2.7886
X4.2717Y-1.7685
X4.2717Y-1.8685
X4.2717Y-1.9685
X4.3783Y-2.5295
X4.3783Y-2.6295
X4.3783Y-2.7295
X4.3783Y-2.8295
X4.4783Y-2.5295
X4.4783Y-2.6295
X4.4783Y-2.7295
X4.4783Y-2.8295
T6
X5.3807Y-2.2933
X5.4807Y-2.2933
X5.5807Y-2.2933
T7
X1.4165Y-2.3839
X1.6535Y-6.1417
X1.7118Y-2.3839
X2.0535Y-6.1417
X2.2835Y-3.7732
X2.2835Y-4.1732
X2.6378Y-6.1417
X3.0378Y-6.1417
X3.2382Y-3.7831
X3.2382Y-4.1831
X3.622Y-6.1417
X4.022Y-6.1417
X4.252Y-3.7732
X4.252Y-4.1732
X4.6063Y-6.1417
X5.0063Y-6.1417
X5.2362Y-3.7732
X5.2362Y-4.1732
X5.5906Y-6.1417
X5.9906Y-6.1417
X6.2205Y-3.7732
X6.2205Y-4.1732
T8
X1.4165Y-3.1713
X1.7118Y-3.3091
T9
X1.7717Y-6.378
X1.9717Y-6.378
X2.7559Y-6.378
X2.9559Y-6.378
X3.7402Y-6.378
X3.9402Y-6.378
X4.7244Y-6.378
X4.9244Y-6.378
X5.7087Y-6.378
X5.9087Y-6.378
T5
G00X6.2992Y-2.3327
M15
G01X6.2992Y-2.2343
M16
G05
G00X6.5354Y-2.3228
M15
G01X6.5354Y-2.2441
M16
G05
T8
G00X1.9154Y-4.685
M15
G01X1.7854Y-4.685
M16
G05
G00X1.9154Y-4.9606
M15
G01X1.7854Y-4.9606
M16
G05
G00X1.9154Y-5.2362
M15
G01X1.7854Y-5.2362
M16
G05
G00X2.8996Y-4.685
M15
G01X2.7697Y-4.685
M16
G05
G00X2.8996Y-4.9606
M15
G01X2.7697Y-4.9606
M16
G05
G00X2.8996Y-5.2362
M15
G01X2.7697Y-5.2362
M16
G05
G00X3.8839Y-4.685
M15
G01X3.7539Y-4.685
M16
G05
G00X3.8839Y-4.9606
M15
G01X3.7539Y-4.9606
M16
G05
G00X3.8839Y-5.2362
M15
G01X3.7539Y-5.2362
M16
G05
G00X4.8681Y-4.685
M15
G01X4.7382Y-4.685
M16
G05
G00X4.8681Y-4.9606
M15
G01X4.7382Y-4.9606
M16
G05
G00X4.8681Y-5.2362
M15
G01X4.7382Y-5.2362
M16
G05
G00X5.8524Y-4.685
M15
G01X5.7224Y-4.685
M16
G05
G00X5.8524Y-4.9606
M15
G01X5.7224Y-4.9606
M16
G05
G00X5.8524Y-5.2362
M15
G01X5.7224Y-5.2362
M16
G05
T0
M30
