%TF.GenerationSoftware,KiCad,Pcbnew,(5.1.10)-1*%
%TF.CreationDate,2022-07-16T16:26:33-07:00*%
%TF.ProjectId,Garden_Board,47617264-656e-45f4-926f-6172642e6b69,rev?*%
%TF.SameCoordinates,Original*%
%TF.FileFunction,Copper,L1,Top*%
%TF.FilePolarity,Positive*%
%FSLAX46Y46*%
G04 Gerber Fmt 4.6, Leading zero omitted, Abs format (unit mm)*
G04 Created by KiCad (PCBNEW (5.1.10)-1) date 2022-07-16 16:26:33*
%MOMM*%
%LPD*%
G01*
G04 APERTURE LIST*
%TA.AperFunction,ComponentPad*%
%ADD10O,6.300000X3.000000*%
%TD*%
%TA.AperFunction,ComponentPad*%
%ADD11C,3.000000*%
%TD*%
%TA.AperFunction,ComponentPad*%
%ADD12R,3.000000X3.000000*%
%TD*%
%TA.AperFunction,ComponentPad*%
%ADD13O,1.905000X2.000000*%
%TD*%
%TA.AperFunction,ComponentPad*%
%ADD14R,1.905000X2.000000*%
%TD*%
%TA.AperFunction,ComponentPad*%
%ADD15O,1.600000X1.600000*%
%TD*%
%TA.AperFunction,ComponentPad*%
%ADD16R,1.600000X1.600000*%
%TD*%
%TA.AperFunction,ComponentPad*%
%ADD17C,1.600000*%
%TD*%
%TA.AperFunction,ComponentPad*%
%ADD18R,1.500000X1.050000*%
%TD*%
%TA.AperFunction,ComponentPad*%
%ADD19O,1.500000X1.050000*%
%TD*%
%TA.AperFunction,ComponentPad*%
%ADD20O,1.700000X1.700000*%
%TD*%
%TA.AperFunction,ComponentPad*%
%ADD21R,1.700000X1.700000*%
%TD*%
%TA.AperFunction,ComponentPad*%
%ADD22C,1.800000*%
%TD*%
%TA.AperFunction,ComponentPad*%
%ADD23R,1.800000X1.800000*%
%TD*%
%TA.AperFunction,ComponentPad*%
%ADD24O,2.400000X2.400000*%
%TD*%
%TA.AperFunction,ComponentPad*%
%ADD25R,2.400000X2.400000*%
%TD*%
%TA.AperFunction,ViaPad*%
%ADD26C,0.800000*%
%TD*%
%TA.AperFunction,Conductor*%
%ADD27C,0.400000*%
%TD*%
G04 APERTURE END LIST*
D10*
%TO.P,SW4,1*%
%TO.N,GND*%
X147000000Y-133000000D03*
%TO.P,SW4,2*%
%TO.N,P4-*%
X147000000Y-126000000D03*
%TO.P,SW4,3*%
%TO.N,Net-(Q4-Pad3)*%
X147000000Y-119000000D03*
%TD*%
%TO.P,SW3,1*%
%TO.N,GND*%
X122000000Y-133000000D03*
%TO.P,SW3,2*%
%TO.N,P3-*%
X122000000Y-126000000D03*
%TO.P,SW3,3*%
%TO.N,Net-(Q3-Pad3)*%
X122000000Y-119000000D03*
%TD*%
%TO.P,SW2,1*%
%TO.N,GND*%
X97000000Y-133000000D03*
%TO.P,SW2,2*%
%TO.N,P2-*%
X97000000Y-126000000D03*
%TO.P,SW2,3*%
%TO.N,Net-(Q2-Pad3)*%
X97000000Y-119000000D03*
%TD*%
%TO.P,SW0,1*%
%TO.N,GND*%
X47000000Y-133000000D03*
%TO.P,SW0,2*%
%TO.N,P0-*%
X47000000Y-126000000D03*
%TO.P,SW0,3*%
%TO.N,Net-(J18-Pad1)*%
X47000000Y-119000000D03*
%TD*%
%TO.P,SW1,1*%
%TO.N,GND*%
X72000000Y-133000000D03*
%TO.P,SW1,2*%
%TO.N,P1-*%
X72000000Y-126000000D03*
%TO.P,SW1,3*%
%TO.N,Net-(Q1-Pad3)*%
X72000000Y-119000000D03*
%TD*%
D11*
%TO.P,K1,3*%
%TO.N,GND*%
X43480000Y-84050000D03*
%TO.P,K1,5*%
%TO.N,Net-(J18-Pad1)*%
X35980000Y-80550000D03*
%TO.P,K1,1*%
%TO.N,Net-(J18-Pad2)*%
X43480000Y-60550000D03*
D12*
%TO.P,K1,6*%
%TO.N,+12V*%
X35980000Y-60550000D03*
%TD*%
D13*
%TO.P,U1,3*%
%TO.N,+12V*%
X136670000Y-58250000D03*
%TO.P,U1,2*%
%TO.N,+3V3*%
X139210000Y-58250000D03*
D14*
%TO.P,U1,1*%
%TO.N,GND*%
X141750000Y-58250000D03*
%TD*%
D15*
%TO.P,U2,A6*%
%TO.N,A6*%
X80840000Y-62550000D03*
%TO.P,U2,A7*%
%TO.N,A7*%
X78300000Y-62550000D03*
%TO.P,U2,A4*%
%TO.N,A4*%
X70680000Y-62550000D03*
%TO.P,U2,A5*%
%TO.N,A5*%
X68140000Y-62550000D03*
%TO.P,U2,24*%
%TO.N,+12V*%
X59250000Y-60010000D03*
%TO.P,U2,23*%
%TO.N,GND*%
X61790000Y-60010000D03*
%TO.P,U2,22*%
%TO.N,Net-(U2-Pad22)*%
X64330000Y-60010000D03*
%TO.P,U2,12*%
%TO.N,SENSE2*%
X87190000Y-75250000D03*
%TO.P,U2,21*%
%TO.N,Net-(U2-Pad21)*%
X66870000Y-60010000D03*
%TO.P,U2,11*%
%TO.N,CTRL2*%
X84650000Y-75250000D03*
%TO.P,U2,20*%
%TO.N,A3*%
X69410000Y-60010000D03*
%TO.P,U2,10*%
%TO.N,SENSE1*%
X82110000Y-75250000D03*
%TO.P,U2,19*%
%TO.N,A2*%
X71950000Y-60010000D03*
%TO.P,U2,9*%
%TO.N,CTRL1*%
X79570000Y-75250000D03*
%TO.P,U2,18*%
%TO.N,A1*%
X74490000Y-60010000D03*
%TO.P,U2,8*%
%TO.N,SENSE0*%
X77030000Y-75250000D03*
%TO.P,U2,17*%
%TO.N,A0*%
X77030000Y-60010000D03*
%TO.P,U2,7*%
%TO.N,CTRL0*%
X74490000Y-75250000D03*
%TO.P,U2,16*%
%TO.N,SENSE4*%
X79570000Y-60010000D03*
%TO.P,U2,6*%
%TO.N,ESP_RX*%
X71950000Y-75250000D03*
%TO.P,U2,15*%
%TO.N,CTRL4*%
X82110000Y-60010000D03*
%TO.P,U2,5*%
%TO.N,ESP_TX*%
X69410000Y-75250000D03*
%TO.P,U2,14*%
%TO.N,SENSE3*%
X84650000Y-60010000D03*
%TO.P,U2,4*%
%TO.N,GND*%
X66870000Y-75250000D03*
%TO.P,U2,13*%
%TO.N,CTRL3*%
X87190000Y-60010000D03*
%TO.P,U2,3*%
%TO.N,Net-(U2-Pad3)*%
X64330000Y-75250000D03*
%TO.P,U2,2*%
%TO.N,Net-(U2-Pad2)*%
X61790000Y-75250000D03*
D16*
%TO.P,U2,1*%
%TO.N,Net-(U2-Pad1)*%
X59250000Y-75250000D03*
%TD*%
D15*
%TO.P,R10,2*%
%TO.N,Net-(D20-Pad2)*%
X53000000Y-106160000D03*
D17*
%TO.P,R10,1*%
%TO.N,CTRL0*%
X53000000Y-96000000D03*
%TD*%
D15*
%TO.P,R9,2*%
%TO.N,Net-(D17-Pad2)*%
X53000000Y-149160000D03*
D17*
%TO.P,R9,1*%
%TO.N,+12V*%
X53000000Y-139000000D03*
%TD*%
D15*
%TO.P,R8,2*%
%TO.N,Net-(D16-Pad2)*%
X153000000Y-106160000D03*
D17*
%TO.P,R8,1*%
%TO.N,CTRL4*%
X153000000Y-96000000D03*
%TD*%
D15*
%TO.P,R7,2*%
%TO.N,Net-(D13-Pad2)*%
X153000000Y-149160000D03*
D17*
%TO.P,R7,1*%
%TO.N,+12V*%
X153000000Y-139000000D03*
%TD*%
D15*
%TO.P,R6,2*%
%TO.N,Net-(D12-Pad2)*%
X128000000Y-106160000D03*
D17*
%TO.P,R6,1*%
%TO.N,CTRL3*%
X128000000Y-96000000D03*
%TD*%
D15*
%TO.P,R5,2*%
%TO.N,Net-(D9-Pad2)*%
X128000000Y-149160000D03*
D17*
%TO.P,R5,1*%
%TO.N,+12V*%
X128000000Y-139000000D03*
%TD*%
D15*
%TO.P,R4,2*%
%TO.N,Net-(D8-Pad2)*%
X103000000Y-106160000D03*
D17*
%TO.P,R4,1*%
%TO.N,CTRL2*%
X103000000Y-96000000D03*
%TD*%
D15*
%TO.P,R3,2*%
%TO.N,Net-(D5-Pad2)*%
X103000000Y-149160000D03*
D17*
%TO.P,R3,1*%
%TO.N,+12V*%
X103000000Y-139000000D03*
%TD*%
D15*
%TO.P,R2,2*%
%TO.N,Net-(D4-Pad2)*%
X78000000Y-106160000D03*
D17*
%TO.P,R2,1*%
%TO.N,CTRL1*%
X78000000Y-96000000D03*
%TD*%
D15*
%TO.P,R1,2*%
%TO.N,Net-(D1-Pad2)*%
X78000000Y-149160000D03*
D17*
%TO.P,R1,1*%
%TO.N,+12V*%
X78000000Y-139000000D03*
%TD*%
D18*
%TO.P,Q5,1*%
%TO.N,GND*%
X53000000Y-111000000D03*
D19*
%TO.P,Q5,3*%
%TO.N,Net-(J18-Pad2)*%
X53000000Y-113540000D03*
%TO.P,Q5,2*%
%TO.N,CTRL0*%
X53000000Y-112270000D03*
%TD*%
D18*
%TO.P,Q4,1*%
%TO.N,GND*%
X153000000Y-111000000D03*
D19*
%TO.P,Q4,3*%
%TO.N,Net-(Q4-Pad3)*%
X153000000Y-113540000D03*
%TO.P,Q4,2*%
%TO.N,CTRL4*%
X153000000Y-112270000D03*
%TD*%
D18*
%TO.P,Q3,1*%
%TO.N,GND*%
X128000000Y-111000000D03*
D19*
%TO.P,Q3,3*%
%TO.N,Net-(Q3-Pad3)*%
X128000000Y-113540000D03*
%TO.P,Q3,2*%
%TO.N,CTRL3*%
X128000000Y-112270000D03*
%TD*%
D18*
%TO.P,Q2,1*%
%TO.N,GND*%
X103000000Y-111000000D03*
D19*
%TO.P,Q2,3*%
%TO.N,Net-(Q2-Pad3)*%
X103000000Y-113540000D03*
%TO.P,Q2,2*%
%TO.N,CTRL2*%
X103000000Y-112270000D03*
%TD*%
D18*
%TO.P,Q1,1*%
%TO.N,GND*%
X78000000Y-111000000D03*
D19*
%TO.P,Q1,3*%
%TO.N,Net-(Q1-Pad3)*%
X78000000Y-113540000D03*
%TO.P,Q1,2*%
%TO.N,CTRL1*%
X78000000Y-112270000D03*
%TD*%
D20*
%TO.P,J18,2*%
%TO.N,Net-(J18-Pad2)*%
X39790000Y-92250000D03*
D21*
%TO.P,J18,1*%
%TO.N,Net-(J18-Pad1)*%
X37250000Y-92250000D03*
%TD*%
D11*
%TO.P,J17,2*%
%TO.N,P0-*%
X50080000Y-162000000D03*
D12*
%TO.P,J17,1*%
%TO.N,+12V*%
X45000000Y-162000000D03*
%TD*%
D20*
%TO.P,J16,3*%
%TO.N,GND*%
X108500000Y-44920000D03*
%TO.P,J16,2*%
%TO.N,A7*%
X108500000Y-47460000D03*
D21*
%TO.P,J16,1*%
%TO.N,+3V3*%
X108500000Y-50000000D03*
%TD*%
D20*
%TO.P,J15,3*%
%TO.N,GND*%
X98500000Y-44920000D03*
%TO.P,J15,2*%
%TO.N,A6*%
X98500000Y-47460000D03*
D21*
%TO.P,J15,1*%
%TO.N,+3V3*%
X98500000Y-50000000D03*
%TD*%
D20*
%TO.P,J14,3*%
%TO.N,GND*%
X88500000Y-44920000D03*
%TO.P,J14,2*%
%TO.N,A5*%
X88500000Y-47460000D03*
D21*
%TO.P,J14,1*%
%TO.N,+3V3*%
X88500000Y-50000000D03*
%TD*%
D20*
%TO.P,J13,3*%
%TO.N,GND*%
X78500000Y-44920000D03*
%TO.P,J13,2*%
%TO.N,A4*%
X78500000Y-47460000D03*
D21*
%TO.P,J13,1*%
%TO.N,+3V3*%
X78500000Y-50000000D03*
%TD*%
D20*
%TO.P,J12,3*%
%TO.N,GND*%
X68500000Y-44920000D03*
%TO.P,J12,2*%
%TO.N,A3*%
X68500000Y-47460000D03*
D21*
%TO.P,J12,1*%
%TO.N,+3V3*%
X68500000Y-50000000D03*
%TD*%
D20*
%TO.P,J11,3*%
%TO.N,GND*%
X58500000Y-44920000D03*
%TO.P,J11,2*%
%TO.N,A2*%
X58500000Y-47460000D03*
D21*
%TO.P,J11,1*%
%TO.N,+3V3*%
X58500000Y-50000000D03*
%TD*%
D20*
%TO.P,J10,3*%
%TO.N,GND*%
X48500000Y-44920000D03*
%TO.P,J10,2*%
%TO.N,A1*%
X48500000Y-47460000D03*
D21*
%TO.P,J10,1*%
%TO.N,+3V3*%
X48500000Y-50000000D03*
%TD*%
D20*
%TO.P,J9,3*%
%TO.N,GND*%
X38500000Y-44920000D03*
%TO.P,J9,2*%
%TO.N,A0*%
X38500000Y-47460000D03*
D21*
%TO.P,J9,1*%
%TO.N,+3V3*%
X38500000Y-50000000D03*
%TD*%
D11*
%TO.P,J8,2*%
%TO.N,P4-*%
X150080000Y-162000000D03*
D12*
%TO.P,J8,1*%
%TO.N,+12V*%
X145000000Y-162000000D03*
%TD*%
D11*
%TO.P,J7,2*%
%TO.N,P3-*%
X125080000Y-162000000D03*
D12*
%TO.P,J7,1*%
%TO.N,+12V*%
X120000000Y-162000000D03*
%TD*%
D20*
%TO.P,J5,3*%
%TO.N,GND*%
X99000000Y-70830000D03*
%TO.P,J5,2*%
%TO.N,ESP_RX*%
X99000000Y-68290000D03*
D21*
%TO.P,J5,1*%
%TO.N,ESP_TX*%
X99000000Y-65750000D03*
%TD*%
D11*
%TO.P,J4,2*%
%TO.N,P2-*%
X100080000Y-162000000D03*
D12*
%TO.P,J4,1*%
%TO.N,+12V*%
X95000000Y-162000000D03*
%TD*%
D20*
%TO.P,J3,8*%
%TO.N,+3V3*%
X111210000Y-71870000D03*
%TO.P,J3,7*%
%TO.N,ESP_RX*%
X113750000Y-71870000D03*
%TO.P,J3,6*%
%TO.N,Net-(J3-Pad6)*%
X111210000Y-69330000D03*
%TO.P,J3,5*%
%TO.N,Net-(J3-Pad5)*%
X113750000Y-69330000D03*
%TO.P,J3,4*%
%TO.N,+3V3*%
X111210000Y-66790000D03*
%TO.P,J3,3*%
%TO.N,Net-(J3-Pad3)*%
X113750000Y-66790000D03*
%TO.P,J3,2*%
%TO.N,ESP_TX*%
X111210000Y-64250000D03*
D21*
%TO.P,J3,1*%
%TO.N,GND*%
X113750000Y-64250000D03*
%TD*%
D11*
%TO.P,J2,2*%
%TO.N,P1-*%
X75080000Y-162000000D03*
D12*
%TO.P,J2,1*%
%TO.N,+12V*%
X70000000Y-162000000D03*
%TD*%
%TO.P,J1,1*%
%TO.N,+12V*%
%TA.AperFunction,ComponentPad*%
G36*
G01*
X161000000Y-56250000D02*
X161000000Y-59750000D01*
G75*
G02*
X160500000Y-60250000I-500000J0D01*
G01*
X159500000Y-60250000D01*
G75*
G02*
X159000000Y-59750000I0J500000D01*
G01*
X159000000Y-56250000D01*
G75*
G02*
X159500000Y-55750000I500000J0D01*
G01*
X160500000Y-55750000D01*
G75*
G02*
X161000000Y-56250000I0J-500000D01*
G01*
G37*
%TD.AperFunction*%
%TO.P,J1,2*%
%TO.N,GND*%
%TA.AperFunction,ComponentPad*%
G36*
G01*
X167000000Y-56500000D02*
X167000000Y-59500000D01*
G75*
G02*
X166500000Y-60000000I-500000J0D01*
G01*
X165500000Y-60000000D01*
G75*
G02*
X165000000Y-59500000I0J500000D01*
G01*
X165000000Y-56500000D01*
G75*
G02*
X165500000Y-56000000I500000J0D01*
G01*
X166500000Y-56000000D01*
G75*
G02*
X167000000Y-56500000I0J-500000D01*
G01*
G37*
%TD.AperFunction*%
%TD*%
D22*
%TO.P,D20,2*%
%TO.N,Net-(D20-Pad2)*%
X48540000Y-106000000D03*
D23*
%TO.P,D20,1*%
%TO.N,GND*%
X46000000Y-106000000D03*
%TD*%
D24*
%TO.P,D19,2*%
%TO.N,SENSE0*%
X58000000Y-95840000D03*
D25*
%TO.P,D19,1*%
%TO.N,P0-*%
X58000000Y-106000000D03*
%TD*%
D24*
%TO.P,D18,2*%
%TO.N,P0-*%
X52160000Y-156000000D03*
D25*
%TO.P,D18,1*%
%TO.N,+12V*%
X42000000Y-156000000D03*
%TD*%
D22*
%TO.P,D17,2*%
%TO.N,Net-(D17-Pad2)*%
X48540000Y-149000000D03*
D23*
%TO.P,D17,1*%
%TO.N,P0-*%
X46000000Y-149000000D03*
%TD*%
D22*
%TO.P,D16,2*%
%TO.N,Net-(D16-Pad2)*%
X148540000Y-106000000D03*
D23*
%TO.P,D16,1*%
%TO.N,GND*%
X146000000Y-106000000D03*
%TD*%
D24*
%TO.P,D15,2*%
%TO.N,SENSE4*%
X158000000Y-95840000D03*
D25*
%TO.P,D15,1*%
%TO.N,P4-*%
X158000000Y-106000000D03*
%TD*%
D24*
%TO.P,D14,2*%
%TO.N,P4-*%
X152160000Y-156000000D03*
D25*
%TO.P,D14,1*%
%TO.N,+12V*%
X142000000Y-156000000D03*
%TD*%
D22*
%TO.P,D13,2*%
%TO.N,Net-(D13-Pad2)*%
X148540000Y-149000000D03*
D23*
%TO.P,D13,1*%
%TO.N,P4-*%
X146000000Y-149000000D03*
%TD*%
D22*
%TO.P,D12,2*%
%TO.N,Net-(D12-Pad2)*%
X123540000Y-106000000D03*
D23*
%TO.P,D12,1*%
%TO.N,GND*%
X121000000Y-106000000D03*
%TD*%
D24*
%TO.P,D11,2*%
%TO.N,SENSE3*%
X133000000Y-95840000D03*
D25*
%TO.P,D11,1*%
%TO.N,P3-*%
X133000000Y-106000000D03*
%TD*%
D24*
%TO.P,D10,2*%
%TO.N,P3-*%
X127160000Y-156000000D03*
D25*
%TO.P,D10,1*%
%TO.N,+12V*%
X117000000Y-156000000D03*
%TD*%
D22*
%TO.P,D9,2*%
%TO.N,Net-(D9-Pad2)*%
X123540000Y-149000000D03*
D23*
%TO.P,D9,1*%
%TO.N,P3-*%
X121000000Y-149000000D03*
%TD*%
D22*
%TO.P,D8,2*%
%TO.N,Net-(D8-Pad2)*%
X98540000Y-106000000D03*
D23*
%TO.P,D8,1*%
%TO.N,GND*%
X96000000Y-106000000D03*
%TD*%
D24*
%TO.P,D7,2*%
%TO.N,SENSE2*%
X108000000Y-95840000D03*
D25*
%TO.P,D7,1*%
%TO.N,P2-*%
X108000000Y-106000000D03*
%TD*%
D24*
%TO.P,D6,2*%
%TO.N,P2-*%
X102160000Y-156000000D03*
D25*
%TO.P,D6,1*%
%TO.N,+12V*%
X92000000Y-156000000D03*
%TD*%
D22*
%TO.P,D5,2*%
%TO.N,Net-(D5-Pad2)*%
X98540000Y-149000000D03*
D23*
%TO.P,D5,1*%
%TO.N,P2-*%
X96000000Y-149000000D03*
%TD*%
D22*
%TO.P,D4,2*%
%TO.N,Net-(D4-Pad2)*%
X73540000Y-106000000D03*
D23*
%TO.P,D4,1*%
%TO.N,GND*%
X71000000Y-106000000D03*
%TD*%
D24*
%TO.P,D3,2*%
%TO.N,SENSE1*%
X82250000Y-96090000D03*
D25*
%TO.P,D3,1*%
%TO.N,P1-*%
X82250000Y-106250000D03*
%TD*%
D24*
%TO.P,D2,2*%
%TO.N,P1-*%
X77160000Y-156000000D03*
D25*
%TO.P,D2,1*%
%TO.N,+12V*%
X67000000Y-156000000D03*
%TD*%
D22*
%TO.P,D1,2*%
%TO.N,Net-(D1-Pad2)*%
X73540000Y-149000000D03*
D23*
%TO.P,D1,1*%
%TO.N,P1-*%
X71000000Y-149000000D03*
%TD*%
D26*
%TO.N,ESP_TX*%
X108100000Y-61900000D03*
%TO.N,A0*%
X48200000Y-56500000D03*
X77100000Y-56600000D03*
%TO.N,A1*%
X55200000Y-55200000D03*
X74500000Y-55200000D03*
%TO.N,A2*%
X63100000Y-52500000D03*
X71900000Y-53900000D03*
%TD*%
D27*
%TO.N,Net-(D1-Pad2)*%
X73540000Y-149000000D02*
X77840000Y-149000000D01*
X77840000Y-149000000D02*
X78000000Y-149160000D01*
%TO.N,P1-*%
X72000000Y-126000000D02*
X76500000Y-126000000D01*
X76500000Y-126000000D02*
X82250000Y-120250000D01*
X82250000Y-120250000D02*
X82250000Y-106250000D01*
X77160000Y-156000000D02*
X77160000Y-155160000D01*
X77160000Y-155160000D02*
X71000000Y-149000000D01*
X75080000Y-162000000D02*
X75080000Y-158080000D01*
X75080000Y-158080000D02*
X77160000Y-156000000D01*
X71000000Y-149000000D02*
X69300000Y-149000000D01*
X69800000Y-126000000D02*
X72000000Y-126000000D01*
X67100000Y-128700000D02*
X69800000Y-126000000D01*
X67100000Y-146800000D02*
X67100000Y-128700000D01*
X69300000Y-149000000D02*
X67100000Y-146800000D01*
%TO.N,SENSE1*%
X82250000Y-96090000D02*
X82250000Y-75390000D01*
X82250000Y-75390000D02*
X82110000Y-75250000D01*
%TO.N,Net-(D4-Pad2)*%
X73540000Y-106000000D02*
X77840000Y-106000000D01*
X77840000Y-106000000D02*
X78000000Y-106160000D01*
%TO.N,Net-(D5-Pad2)*%
X98540000Y-149000000D02*
X102840000Y-149000000D01*
X102840000Y-149000000D02*
X103000000Y-149160000D01*
%TO.N,P2-*%
X97000000Y-126000000D02*
X100800000Y-126000000D01*
X100800000Y-126000000D02*
X108000000Y-118800000D01*
X108000000Y-118800000D02*
X108000000Y-106000000D01*
X102160000Y-156000000D02*
X102160000Y-155160000D01*
X102160000Y-155160000D02*
X96000000Y-149000000D01*
X100080000Y-162000000D02*
X100080000Y-158080000D01*
X100080000Y-158080000D02*
X102160000Y-156000000D01*
X96000000Y-149000000D02*
X94600000Y-149000000D01*
X94600000Y-126000000D02*
X97000000Y-126000000D01*
X91700000Y-128900000D02*
X94600000Y-126000000D01*
X91700000Y-146100000D02*
X91700000Y-128900000D01*
X94600000Y-149000000D02*
X91700000Y-146100000D01*
%TO.N,SENSE2*%
X87190000Y-75250000D02*
X87410000Y-75250000D01*
X87410000Y-75250000D02*
X108000000Y-95840000D01*
%TO.N,Net-(D8-Pad2)*%
X98540000Y-106000000D02*
X102840000Y-106000000D01*
X102840000Y-106000000D02*
X103000000Y-106160000D01*
%TO.N,Net-(D9-Pad2)*%
X123540000Y-149000000D02*
X127840000Y-149000000D01*
X127840000Y-149000000D02*
X128000000Y-149160000D01*
%TO.N,P3-*%
X125080000Y-162000000D02*
X125080000Y-158080000D01*
X125080000Y-158080000D02*
X127160000Y-156000000D01*
X127160000Y-156000000D02*
X127160000Y-155160000D01*
X127160000Y-155160000D02*
X121000000Y-149000000D01*
X121000000Y-149000000D02*
X121000000Y-145900000D01*
X119700000Y-126000000D02*
X122000000Y-126000000D01*
X116900000Y-128800000D02*
X119700000Y-126000000D01*
X116900000Y-141800000D02*
X116900000Y-128800000D01*
X121000000Y-145900000D02*
X116900000Y-141800000D01*
X122000000Y-126000000D02*
X125800000Y-126000000D01*
X133000000Y-118800000D02*
X133000000Y-106000000D01*
X125800000Y-126000000D02*
X133000000Y-118800000D01*
%TO.N,SENSE3*%
X133000000Y-95840000D02*
X133000000Y-92900000D01*
X87560000Y-57100000D02*
X84650000Y-60010000D01*
X99300000Y-57100000D02*
X87560000Y-57100000D01*
X103400000Y-61200000D02*
X99300000Y-57100000D01*
X103400000Y-75200000D02*
X103400000Y-61200000D01*
X109300000Y-81100000D02*
X103400000Y-75200000D01*
X121200000Y-81100000D02*
X109300000Y-81100000D01*
X133000000Y-92900000D02*
X121200000Y-81100000D01*
%TO.N,Net-(D12-Pad2)*%
X123540000Y-106000000D02*
X127840000Y-106000000D01*
X127840000Y-106000000D02*
X128000000Y-106160000D01*
%TO.N,Net-(D13-Pad2)*%
X148540000Y-149000000D02*
X152840000Y-149000000D01*
X152840000Y-149000000D02*
X153000000Y-149160000D01*
%TO.N,P4-*%
X150080000Y-162000000D02*
X150080000Y-158080000D01*
X150080000Y-158080000D02*
X152160000Y-156000000D01*
X152160000Y-156000000D02*
X152160000Y-155160000D01*
X152160000Y-155160000D02*
X146000000Y-149000000D01*
X146000000Y-149000000D02*
X143600000Y-149000000D01*
X142200000Y-126000000D02*
X147000000Y-126000000D01*
X141100000Y-127100000D02*
X142200000Y-126000000D01*
X141100000Y-146500000D02*
X141100000Y-127100000D01*
X143600000Y-149000000D02*
X141100000Y-146500000D01*
X147000000Y-126000000D02*
X152600000Y-126000000D01*
X158000000Y-120600000D02*
X158000000Y-106000000D01*
X152600000Y-126000000D02*
X158000000Y-120600000D01*
%TO.N,SENSE4*%
X158000000Y-95840000D02*
X158000000Y-93200000D01*
X85080000Y-54500000D02*
X79570000Y-60010000D01*
X100500000Y-54500000D02*
X85080000Y-54500000D01*
X106600000Y-60600000D02*
X100500000Y-54500000D01*
X106600000Y-73700000D02*
X106600000Y-60600000D01*
X110900000Y-78000000D02*
X106600000Y-73700000D01*
X142800000Y-78000000D02*
X110900000Y-78000000D01*
X158000000Y-93200000D02*
X142800000Y-78000000D01*
%TO.N,Net-(D16-Pad2)*%
X148540000Y-106000000D02*
X152840000Y-106000000D01*
X152840000Y-106000000D02*
X153000000Y-106160000D01*
%TO.N,Net-(D17-Pad2)*%
X48540000Y-149000000D02*
X52840000Y-149000000D01*
X52840000Y-149000000D02*
X53000000Y-149160000D01*
%TO.N,P0-*%
X46000000Y-149000000D02*
X44000000Y-149000000D01*
X44000000Y-149000000D02*
X41900000Y-146900000D01*
X41900000Y-146900000D02*
X41900000Y-126700000D01*
X41900000Y-126700000D02*
X42600000Y-126000000D01*
X42600000Y-126000000D02*
X47000000Y-126000000D01*
X47000000Y-126000000D02*
X52300000Y-126000000D01*
X58000000Y-120300000D02*
X58000000Y-106000000D01*
X52300000Y-126000000D02*
X58000000Y-120300000D01*
X50080000Y-162000000D02*
X50080000Y-158080000D01*
X50080000Y-158080000D02*
X52160000Y-156000000D01*
X52160000Y-156000000D02*
X52160000Y-155160000D01*
X52160000Y-155160000D02*
X46000000Y-149000000D01*
%TO.N,SENSE0*%
X58000000Y-95840000D02*
X58000000Y-94280000D01*
X58000000Y-94280000D02*
X77030000Y-75250000D01*
%TO.N,Net-(D20-Pad2)*%
X48540000Y-106000000D02*
X52840000Y-106000000D01*
X52840000Y-106000000D02*
X53000000Y-106160000D01*
%TO.N,+3V3*%
X111210000Y-71870000D02*
X111210000Y-74910000D01*
X120960000Y-76500000D02*
X139210000Y-58250000D01*
X112800000Y-76500000D02*
X120960000Y-76500000D01*
X111210000Y-74910000D02*
X112800000Y-76500000D01*
X139210000Y-58250000D02*
X139210000Y-54410000D01*
X134800000Y-50000000D02*
X98500000Y-50000000D01*
X139210000Y-54410000D02*
X134800000Y-50000000D01*
X98500000Y-50000000D02*
X88500000Y-50000000D01*
X88500000Y-50000000D02*
X78500000Y-50000000D01*
X78500000Y-50000000D02*
X68500000Y-50000000D01*
X68500000Y-50000000D02*
X58500000Y-50000000D01*
X58500000Y-50000000D02*
X48500000Y-50000000D01*
X48500000Y-50000000D02*
X38500000Y-50000000D01*
%TO.N,ESP_RX*%
X99000000Y-68290000D02*
X78910000Y-68290000D01*
X78910000Y-68290000D02*
X71950000Y-75250000D01*
%TO.N,ESP_TX*%
X99000000Y-65750000D02*
X96750000Y-65750000D01*
X77460000Y-67200000D02*
X69410000Y-75250000D01*
X95300000Y-67200000D02*
X77460000Y-67200000D01*
X96750000Y-65750000D02*
X95300000Y-67200000D01*
X110450000Y-64250000D02*
X111210000Y-64250000D01*
X108100000Y-61900000D02*
X110450000Y-64250000D01*
%TO.N,A0*%
X77000000Y-56500000D02*
X48200000Y-56500000D01*
X77100000Y-56600000D02*
X77000000Y-56500000D01*
%TO.N,A1*%
X74500000Y-55200000D02*
X55200000Y-55200000D01*
%TO.N,A2*%
X70500000Y-52500000D02*
X63100000Y-52500000D01*
X71900000Y-53900000D02*
X70500000Y-52500000D01*
%TO.N,Net-(J18-Pad2)*%
X39790000Y-92250000D02*
X39790000Y-64240000D01*
X39790000Y-64240000D02*
X43480000Y-60550000D01*
X39790000Y-92250000D02*
X39790000Y-107590000D01*
X45740000Y-113540000D02*
X53000000Y-113540000D01*
X39790000Y-107590000D02*
X45740000Y-113540000D01*
%TO.N,Net-(J18-Pad1)*%
X37250000Y-92250000D02*
X37250000Y-85150000D01*
X35980000Y-83880000D02*
X35980000Y-80550000D01*
X37250000Y-85150000D02*
X35980000Y-83880000D01*
X47000000Y-119000000D02*
X42100000Y-119000000D01*
X37250000Y-114150000D02*
X37250000Y-92250000D01*
X42100000Y-119000000D02*
X37250000Y-114150000D01*
%TO.N,Net-(Q1-Pad3)*%
X72000000Y-119000000D02*
X76000000Y-119000000D01*
X78000000Y-117000000D02*
X78000000Y-113540000D01*
X76000000Y-119000000D02*
X78000000Y-117000000D01*
%TO.N,CTRL1*%
X78000000Y-96000000D02*
X78000000Y-76820000D01*
X78000000Y-76820000D02*
X79570000Y-75250000D01*
X78000000Y-112270000D02*
X79270000Y-112270000D01*
X79800000Y-97800000D02*
X78000000Y-96000000D01*
X79800000Y-111740000D02*
X79800000Y-97800000D01*
X79270000Y-112270000D02*
X79800000Y-111740000D01*
%TO.N,Net-(Q2-Pad3)*%
X97000000Y-119000000D02*
X100900000Y-119000000D01*
X103000000Y-116900000D02*
X103000000Y-113540000D01*
X100900000Y-119000000D02*
X103000000Y-116900000D01*
%TO.N,CTRL2*%
X103000000Y-112270000D02*
X104470000Y-112270000D01*
X104900000Y-97900000D02*
X103000000Y-96000000D01*
X104900000Y-111840000D02*
X104900000Y-97900000D01*
X104470000Y-112270000D02*
X104900000Y-111840000D01*
X103000000Y-96000000D02*
X103000000Y-93600000D01*
X103000000Y-93600000D02*
X84650000Y-75250000D01*
%TO.N,Net-(Q3-Pad3)*%
X122000000Y-119000000D02*
X125800000Y-119000000D01*
X128000000Y-116800000D02*
X128000000Y-113540000D01*
X125800000Y-119000000D02*
X128000000Y-116800000D01*
%TO.N,CTRL3*%
X87190000Y-60010000D02*
X99710000Y-60010000D01*
X114600000Y-82600000D02*
X128000000Y-96000000D01*
X108100000Y-82600000D02*
X114600000Y-82600000D01*
X101900000Y-76400000D02*
X108100000Y-82600000D01*
X101900000Y-62200000D02*
X101900000Y-76400000D01*
X99710000Y-60010000D02*
X101900000Y-62200000D01*
X128000000Y-112270000D02*
X129470000Y-112270000D01*
X130300000Y-98300000D02*
X128000000Y-96000000D01*
X130300000Y-111440000D02*
X130300000Y-98300000D01*
X129470000Y-112270000D02*
X130300000Y-111440000D01*
%TO.N,Net-(Q4-Pad3)*%
X147000000Y-119000000D02*
X151700000Y-119000000D01*
X153000000Y-117700000D02*
X153000000Y-113540000D01*
X151700000Y-119000000D02*
X153000000Y-117700000D01*
%TO.N,CTRL4*%
X82110000Y-60010000D02*
X82110000Y-58790000D01*
X136400000Y-79400000D02*
X153000000Y-96000000D01*
X110300000Y-79400000D02*
X136400000Y-79400000D01*
X105300000Y-74400000D02*
X110300000Y-79400000D01*
X105300000Y-60900000D02*
X105300000Y-74400000D01*
X99900000Y-55500000D02*
X105300000Y-60900000D01*
X85400000Y-55500000D02*
X99900000Y-55500000D01*
X82110000Y-58790000D02*
X85400000Y-55500000D01*
X153000000Y-112270000D02*
X154630000Y-112270000D01*
X154900000Y-97900000D02*
X153000000Y-96000000D01*
X154900000Y-112000000D02*
X154900000Y-97900000D01*
X154630000Y-112270000D02*
X154900000Y-112000000D01*
%TO.N,CTRL0*%
X74490000Y-75250000D02*
X73750000Y-75250000D01*
X73750000Y-75250000D02*
X53000000Y-96000000D01*
X53000000Y-112270000D02*
X54630000Y-112270000D01*
X55200000Y-98200000D02*
X53000000Y-96000000D01*
X55200000Y-111700000D02*
X55200000Y-98200000D01*
X54630000Y-112270000D02*
X55200000Y-111700000D01*
%TD*%
M02*
